<svg class="small-icon-size" width="30" height="30" viewBox="0 0 30 30" fill="currentColor" xmlns="http://www.w3.org/2000/svg">
<path d="M17.5 25H5V21.25C5 17.875 11.625 16.25 15 16.25C16.875 16.25 19.875 16.75 22.125 17.875C21.125 18.25 20.375 18.75 19.625 19.375C18.25 18.875 16.625 18.625 15 18.625C11.25 18.625 7.375 20.5 7.375 21.25V22.625H17.75C17.625 23.125 17.5 23.75 17.5 24.375V25ZM28.75 24.375C28.75 26.75 26.75 28.75 24.375 28.75C22 28.75 20 26.75 20 24.375C20 22 22 20 24.375 20C26.75 20 28.75 22 28.75 24.375ZM15 7.5C16.375 7.5 17.5 8.625 17.5 10C17.5 11.375 16.375 12.5 15 12.5C13.625 12.5 12.5 11.375 12.5 10C12.5 8.625 13.625 7.5 15 7.5ZM15 5C12.25 5 10 7.25 10 10C10 12.75 12.25 15 15 15C17.75 15 20 12.75 20 10C20 7.25 17.75 5 15 5Z" fill="currentColor"/>
</svg>
