<svg width="30" height="30" viewBox="0 0 30 30" fill="none" xmlns="http://www.w3.org/2000/svg">
<path d="M9.375 1.875C8.38044 1.875 7.42661 2.27009 6.72335 2.97335C6.02009 3.67661 5.625 4.63044 5.625 5.625V24.375C5.625 25.3696 6.02009 26.3234 6.72335 27.0266C7.42661 27.7299 8.38044 28.125 9.375 28.125H13.6069C13.1293 27.5467 12.7162 26.9179 12.375 26.25H9.375C8.87772 26.25 8.40081 26.0525 8.04918 25.7008C7.69754 25.3492 7.5 24.8723 7.5 24.375V5.625C7.5 5.12772 7.69754 4.65081 8.04918 4.29917C8.40081 3.94754 8.87772 3.75 9.375 3.75H20.625C21.1223 3.75 21.5992 3.94754 21.9508 4.29917C22.3025 4.65081 22.5 5.12772 22.5 5.625V11.2912C23.145 11.3512 23.77 11.4669 24.375 11.6381V5.625C24.375 4.63044 23.9799 3.67661 23.2766 2.97335C22.5734 2.27009 21.6196 1.875 20.625 1.875H9.375ZM17.9813 9.36C18.2118 9.31826 18.4183 9.19173 18.5602 9.00531C18.7021 8.81889 18.7691 8.58611 18.7479 8.35279C18.7267 8.11947 18.619 7.90254 18.4458 7.7447C18.2727 7.58687 18.0468 7.49957 17.8125 7.5H12.1875L12.0187 7.515C11.7882 7.55674 11.5817 7.68327 11.4398 7.86969C11.2979 8.05611 11.2309 8.28889 11.2521 8.52221C11.2733 8.75553 11.381 8.97246 11.5542 9.1303C11.7273 9.28813 11.9532 9.37543 12.1875 9.375H17.8125L17.9813 9.36ZM30 21.5625C30 23.8003 29.1111 25.9464 27.5287 27.5287C25.9464 29.1111 23.8003 30 21.5625 30C19.3247 30 17.1786 29.1111 15.5963 27.5287C14.0139 25.9464 13.125 23.8003 13.125 21.5625C13.125 19.3247 14.0139 17.1786 15.5963 15.5963C17.1786 14.0139 19.3247 13.125 21.5625 13.125C23.8003 13.125 25.9464 14.0139 27.5287 15.5963C29.1111 17.1786 30 19.3247 30 21.5625ZM22.5 17.8125C22.5 17.5639 22.4012 17.3254 22.2254 17.1496C22.0496 16.9738 21.8111 16.875 21.5625 16.875C21.3139 16.875 21.0754 16.9738 20.8996 17.1496C20.7238 17.3254 20.625 17.5639 20.625 17.8125V20.625H17.8125C17.5639 20.625 17.3254 20.7238 17.1496 20.8996C16.9738 21.0754 16.875 21.3139 16.875 21.5625C16.875 21.8111 16.9738 22.0496 17.1496 22.2254C17.3254 22.4012 17.5639 22.5 17.8125 22.5H20.625V25.3125C20.625 25.5611 20.7238 25.7996 20.8996 25.9754C21.0754 26.1512 21.3139 26.25 21.5625 26.25C21.8111 26.25 22.0496 26.1512 22.2254 25.9754C22.4012 25.7996 22.5 25.5611 22.5 25.3125V22.5H25.3125C25.5611 22.5 25.7996 22.4012 25.9754 22.2254C26.1512 22.0496 26.25 21.8111 26.25 21.5625C26.25 21.3139 26.1512 21.0754 25.9754 20.8996C25.7996 20.7238 25.5611 20.625 25.3125 20.625H22.5V17.8125Z" fill="black"/>
</svg>
