<svg width="30" height="30" viewBox="0 0 30 30" fill="none" xmlns="http://www.w3.org/2000/svg">
<path d="M4.02347 5.89847C4.11056 5.81117 4.21401 5.7419 4.32791 5.69464C4.44181 5.64737 4.56391 5.62305 4.68722 5.62305C4.81054 5.62305 4.93264 5.64737 5.04654 5.69464C5.16043 5.7419 5.26389 5.81117 5.35097 5.89847L6.8941 7.44347C7.15744 7.70715 7.30536 8.06457 7.30536 8.43722C7.30536 8.80988 7.15744 9.1673 6.8941 9.43097L5.35097 10.976C5.17494 11.152 4.93618 11.2509 4.68722 11.2509C4.43827 11.2509 4.19951 11.152 4.02347 10.976C3.84744 10.7999 3.74854 10.5612 3.74854 10.3122C3.74854 10.189 3.77282 10.0669 3.81999 9.953C3.86717 9.83912 3.93631 9.73564 4.02347 9.64847L5.2366 8.43722L4.02347 7.22597C3.93617 7.13889 3.8669 7.03543 3.81964 6.92154C3.77237 6.80764 3.74805 6.68554 3.74805 6.56222C3.74805 6.43891 3.77237 6.31681 3.81964 6.20291C3.8669 6.08901 3.93617 5.98556 4.02347 5.89847ZM7.49972 11.2497C7.49972 11.0011 7.59849 10.7626 7.77431 10.5868C7.95013 10.411 8.18858 10.3122 8.43722 10.3122H10.3122C10.5609 10.3122 10.7993 10.411 10.9751 10.5868C11.1509 10.7626 11.2497 11.0011 11.2497 11.2497C11.2497 11.4984 11.1509 11.7368 10.9751 11.9126C10.7993 12.0885 10.5609 12.1872 10.3122 12.1872H8.43722C8.18858 12.1872 7.95013 12.0885 7.77431 11.9126C7.59849 11.7368 7.49972 11.4984 7.49972 11.2497ZM19.4135 5.89847C19.2374 5.72244 18.9987 5.62354 18.7497 5.62354C18.5008 5.62354 18.262 5.72244 18.086 5.89847C17.9099 6.07451 17.811 6.31327 17.811 6.56222C17.811 6.81118 17.9099 7.04994 18.086 7.22597L19.2991 8.43722L18.086 9.64847C17.9099 9.82451 17.811 10.0633 17.811 10.3122C17.811 10.5612 17.9099 10.7999 18.086 10.976C18.262 11.152 18.5008 11.2509 18.7497 11.2509C18.9987 11.2509 19.2374 11.152 19.4135 10.976L20.9566 9.43097C21.2199 9.1673 21.3679 8.80988 21.3679 8.43722C21.3679 8.06457 21.2199 7.70715 20.9566 7.44347L19.4135 5.89847ZM22.4997 10.3122C22.2511 10.3122 22.0126 10.411 21.8368 10.5868C21.661 10.7626 21.5622 11.0011 21.5622 11.2497C21.5622 11.4984 21.661 11.7368 21.8368 11.9126C22.0126 12.0885 22.2511 12.1872 22.4997 12.1872H24.3747C24.6234 12.1872 24.8618 12.0885 25.0376 11.9126C25.2134 11.7368 25.3122 11.4984 25.3122 11.2497C25.3122 11.0011 25.2134 10.7626 25.0376 10.5868C24.8618 10.411 24.6234 10.3122 24.3747 10.3122H22.4997Z" fill="black"/>
<path d="M0 5.625C0 4.63044 0.395088 3.67661 1.09835 2.97335C1.80161 2.27009 2.75544 1.875 3.75 1.875H26.25C27.2446 1.875 28.1984 2.27009 28.9016 2.97335C29.6049 3.67661 30 4.63044 30 5.625V24.375C30 25.3696 29.6049 26.3234 28.9016 27.0266C28.1984 27.7299 27.2446 28.125 26.25 28.125H3.75C2.75544 28.125 1.80161 27.7299 1.09835 27.0266C0.395088 26.3234 0 25.3696 0 24.375V5.625ZM3.75 3.75C3.25272 3.75 2.77581 3.94754 2.42417 4.29917C2.07254 4.65081 1.875 5.12772 1.875 5.625V24.375C1.875 24.8723 2.07254 25.3492 2.42417 25.7008C2.77581 26.0525 3.25272 26.25 3.75 26.25H14.0625V3.75H3.75ZM15.9375 3.75V26.25H26.25C26.7473 26.25 27.2242 26.0525 27.5758 25.7008C27.9275 25.3492 28.125 24.8723 28.125 24.375V5.625C28.125 5.12772 27.9275 4.65081 27.5758 4.29917C27.2242 3.94754 26.7473 3.75 26.25 3.75H15.9375Z" fill="black"/>
</svg>
