<svg width="24" height="24" viewBox="0 0 24 24" fill="none" xmlns="http://www.w3.org/2000/svg">
<path d="M19.9648 13H3.96484C3.69963 13 3.44527 12.8946 3.25774 12.7071C3.0702 12.5196 2.96484 12.2652 2.96484 12C2.96484 11.7348 3.0702 11.4804 3.25774 11.2929C3.44527 11.1054 3.69963 11 3.96484 11H19.9648C20.2301 11 20.4844 11.1054 20.672 11.2929C20.8595 11.4804 20.9648 11.7348 20.9648 12C20.9648 12.2652 20.8595 12.5196 20.672 12.7071C20.4844 12.8946 20.2301 13 19.9648 13Z" fill="black"/>
<path d="M19.9648 5H3.96484C3.69963 5 3.44527 4.89464 3.25774 4.70711C3.0702 4.51957 2.96484 4.26522 2.96484 4C2.96484 3.73478 3.0702 3.48043 3.25774 3.29289C3.44527 3.10536 3.69963 3 3.96484 3H19.9648C20.2301 3 20.4844 3.10536 20.672 3.29289C20.8595 3.48043 20.9648 3.73478 20.9648 4C20.9648 4.26522 20.8595 4.51957 20.672 4.70711C20.4844 4.89464 20.2301 5 19.9648 5Z" fill="black"/>
<path d="M19.9648 21H3.96484C3.69963 21 3.44527 20.8946 3.25774 20.7071C3.0702 20.5196 2.96484 20.2652 2.96484 20C2.96484 19.7348 3.0702 19.4804 3.25774 19.2929C3.44527 19.1054 3.69963 19 3.96484 19H19.9648C20.2301 19 20.4844 19.1054 20.672 19.2929C20.8595 19.4804 20.9648 19.7348 20.9648 20C20.9648 20.2652 20.8595 20.5196 20.672 20.7071C20.4844 20.8946 20.2301 21 19.9648 21Z" fill="black"/>
<path d="M11.9648 21C11.6996 21 11.4453 20.8946 11.2577 20.7071C11.0702 20.5196 10.9648 20.2652 10.9648 20V4C10.9648 3.73478 11.0702 3.48043 11.2577 3.29289C11.4453 3.10536 11.6996 3 11.9648 3C12.2301 3 12.4844 3.10536 12.672 3.29289C12.8595 3.48043 12.9648 3.73478 12.9648 4V20C12.9648 20.2652 12.8595 20.5196 12.672 20.7071C12.4844 20.8946 12.2301 21 11.9648 21Z" fill="black"/>
<path d="M3.96484 21C3.69963 21 3.44527 20.8946 3.25774 20.7071C3.0702 20.5196 2.96484 20.2652 2.96484 20V4C2.96484 3.73478 3.0702 3.48043 3.25774 3.29289C3.44527 3.10536 3.69963 3 3.96484 3C4.23006 3 4.48441 3.10536 4.67195 3.29289C4.85949 3.48043 4.96484 3.73478 4.96484 4V20C4.96484 20.2652 4.85949 20.5196 4.67195 20.7071C4.48441 20.8946 4.23006 21 3.96484 21Z" fill="black"/>
<path d="M19.9648 21C19.6996 21 19.4453 20.8946 19.2577 20.7071C19.0702 20.5196 18.9648 20.2652 18.9648 20V4C18.9648 3.73478 19.0702 3.48043 19.2577 3.29289C19.4453 3.10536 19.6996 3 19.9648 3C20.2301 3 20.4844 3.10536 20.672 3.29289C20.8595 3.48043 20.9648 3.73478 20.9648 4V20C20.9648 20.2652 20.8595 20.5196 20.672 20.7071C20.4844 20.8946 20.2301 21 19.9648 21Z" fill="black"/>
<path opacity="0.5" d="M3.96484 17C4.51713 17 4.96484 16.5523 4.96484 16C4.96484 15.4477 4.51713 15 3.96484 15C3.41256 15 2.96484 15.4477 2.96484 16C2.96484 16.5523 3.41256 17 3.96484 17Z" fill="black"/>
<path opacity="0.5" d="M3.96484 21C4.51713 21 4.96484 20.5523 4.96484 20C4.96484 19.4477 4.51713 19 3.96484 19C3.41256 19 2.96484 19.4477 2.96484 20C2.96484 20.5523 3.41256 21 3.96484 21Z" fill="black"/>
<path opacity="0.5" d="M3.96484 9C4.51713 9 4.96484 8.55228 4.96484 8C4.96484 7.44772 4.51713 7 3.96484 7C3.41256 7 2.96484 7.44772 2.96484 8C2.96484 8.55228 3.41256 9 3.96484 9Z" fill="black"/>
<path opacity="0.5" d="M3.96484 5C4.51713 5 4.96484 4.55228 4.96484 4C4.96484 3.44772 4.51713 3 3.96484 3C3.41256 3 2.96484 3.44772 2.96484 4C2.96484 4.55228 3.41256 5 3.96484 5Z" fill="black"/>
<path opacity="0.5" d="M7.96484 5C8.51713 5 8.96484 4.55228 8.96484 4C8.96484 3.44772 8.51713 3 7.96484 3C7.41256 3 6.96484 3.44772 6.96484 4C6.96484 4.55228 7.41256 5 7.96484 5Z" fill="black"/>
<path opacity="0.5" d="M15.9648 5C16.5171 5 16.9648 4.55228 16.9648 4C16.9648 3.44772 16.5171 3 15.9648 3C15.4126 3 14.9648 3.44772 14.9648 4C14.9648 4.55228 15.4126 5 15.9648 5Z" fill="black"/>
<path opacity="0.5" d="M7.96484 21C8.51713 21 8.96484 20.5523 8.96484 20C8.96484 19.4477 8.51713 19 7.96484 19C7.41256 19 6.96484 19.4477 6.96484 20C6.96484 20.5523 7.41256 21 7.96484 21Z" fill="black"/>
<path opacity="0.5" d="M15.9648 21C16.5171 21 16.9648 20.5523 16.9648 20C16.9648 19.4477 16.5171 19 15.9648 19C15.4126 19 14.9648 19.4477 14.9648 20C14.9648 20.5523 15.4126 21 15.9648 21Z" fill="black"/>
<path opacity="0.5" d="M19.9648 17C20.5171 17 20.9648 16.5523 20.9648 16C20.9648 15.4477 20.5171 15 19.9648 15C19.4126 15 18.9648 15.4477 18.9648 16C18.9648 16.5523 19.4126 17 19.9648 17Z" fill="black"/>
<path opacity="0.5" d="M19.9648 21C20.5171 21 20.9648 20.5523 20.9648 20C20.9648 19.4477 20.5171 19 19.9648 19C19.4126 19 18.9648 19.4477 18.9648 20C18.9648 20.5523 19.4126 21 19.9648 21Z" fill="black"/>
<path opacity="0.5" d="M19.9648 9C20.5171 9 20.9648 8.55228 20.9648 8C20.9648 7.44772 20.5171 7 19.9648 7C19.4126 7 18.9648 7.44772 18.9648 8C18.9648 8.55228 19.4126 9 19.9648 9Z" fill="black"/>
<path opacity="0.5" d="M19.9648 5C20.5171 5 20.9648 4.55228 20.9648 4C20.9648 3.44772 20.5171 3 19.9648 3C19.4126 3 18.9648 3.44772 18.9648 4C18.9648 4.55228 19.4126 5 19.9648 5Z" fill="black"/>
</svg>
