<svg width="24" height="24" viewBox="0 0 24 24" fill="none" xmlns="http://www.w3.org/2000/svg">
<g clip-path="url(#clip0_921_7924)">
<path d="M21 19.9648V3.96484C21 3.69963 20.8946 3.44527 20.7071 3.25774C20.5196 3.0702 20.2652 2.96484 20 2.96484C19.7348 2.96484 19.4804 3.0702 19.2929 3.25774C19.1054 3.44527 19 3.69963 19 3.96484V19.9648C19 20.2301 19.1054 20.4844 19.2929 20.672C19.4804 20.8595 19.7348 20.9648 20 20.9648C20.2652 20.9648 20.5196 20.8595 20.7071 20.672C20.8946 20.4844 21 20.2301 21 19.9648Z" fill="black"/>
<path d="M5 19.9648V3.96484C5 3.69963 4.89464 3.44527 4.70711 3.25774C4.51957 3.0702 4.26522 2.96484 4 2.96484C3.73478 2.96484 3.48043 3.0702 3.29289 3.25774C3.10536 3.44527 3 3.69963 3 3.96484V19.9648C3 20.2301 3.10536 20.4844 3.29289 20.672C3.48043 20.8595 3.73478 20.9648 4 20.9648C4.26522 20.9648 4.51957 20.8595 4.70711 20.672C4.89464 20.4844 5 20.2301 5 19.9648Z" fill="black"/>
<path d="M4.03516 5H20.0352C20.3004 5 20.5547 4.89464 20.7423 4.70711C20.9298 4.51957 21.0352 4.26522 21.0352 4C21.0352 3.73478 20.9298 3.48043 20.7423 3.29289C20.5547 3.10536 20.3004 3 20.0352 3H4.03516C3.76994 3 3.51558 3.10536 3.32805 3.29289C3.14051 3.48043 3.03516 3.73478 3.03516 4C3.03516 4.26522 3.14051 4.51957 3.32805 4.70711C3.51558 4.89464 3.76994 5 4.03516 5Z" fill="black"/>
<path d="M4.03516 21H20.0352C20.3004 21 20.5547 20.8946 20.7423 20.7071C20.9298 20.5196 21.0352 20.2652 21.0352 20C21.0352 19.7348 20.9298 19.4804 20.7423 19.2929C20.5547 19.1054 20.3004 19 20.0352 19H4.03516C3.76994 19 3.51558 19.1054 3.32805 19.2929C3.14051 19.4804 3.03516 19.7348 3.03516 20C3.03516 20.2652 3.14051 20.5196 3.32805 20.7071C3.51558 20.8946 3.76994 21 4.03516 21Z" fill="black"/>
<path opacity="0.5" d="M20.0352 17C19.4829 17 19.0352 16.5523 19.0352 16C19.0352 15.4477 19.4829 15 20.0352 15C20.5874 15 21.0352 15.4477 21.0352 16C21.0352 16.5523 20.5874 17 20.0352 17Z" fill="black"/>
<path opacity="0.5" d="M20.0352 21C19.4829 21 19.0352 20.5523 19.0352 20C19.0352 19.4477 19.4829 19 20.0352 19C20.5874 19 21.0352 19.4477 21.0352 20C21.0352 20.5523 20.5874 21 20.0352 21Z" fill="black"/>
<path opacity="0.5" d="M20.0352 9C19.4829 9 19.0352 8.55228 19.0352 8C19.0352 7.44772 19.4829 7 20.0352 7C20.5874 7 21.0352 7.44772 21.0352 8C21.0352 8.55228 20.5874 9 20.0352 9Z" fill="black"/>
<path opacity="0.5" d="M20.0352 5C19.4829 5 19.0352 4.55228 19.0352 4C19.0352 3.44772 19.4829 3 20.0352 3C20.5874 3 21.0352 3.44772 21.0352 4C21.0352 4.55228 20.5874 5 20.0352 5Z" fill="black"/>
<path opacity="0.5" d="M16.0352 5C15.4829 5 15.0352 4.55228 15.0352 4C15.0352 3.44772 15.4829 3 16.0352 3C16.5874 3 17.0352 3.44772 17.0352 4C17.0352 4.55228 16.5874 5 16.0352 5Z" fill="black"/>
<path opacity="0.5" d="M8.03516 5C7.48287 5 7.03516 4.55228 7.03516 4C7.03516 3.44772 7.48287 3 8.03516 3C8.58744 3 9.03516 3.44772 9.03516 4C9.03516 4.55228 8.58744 5 8.03516 5Z" fill="black"/>
<path opacity="0.5" d="M16.0352 21C15.4829 21 15.0352 20.5523 15.0352 20C15.0352 19.4477 15.4829 19 16.0352 19C16.5874 19 17.0352 19.4477 17.0352 20C17.0352 20.5523 16.5874 21 16.0352 21Z" fill="black"/>
<path opacity="0.5" d="M8.03516 21C7.48287 21 7.03516 20.5523 7.03516 20C7.03516 19.4477 7.48287 19 8.03516 19C8.58744 19 9.03516 19.4477 9.03516 20C9.03516 20.5523 8.58744 21 8.03516 21Z" fill="black"/>
<path opacity="0.5" d="M12.0352 21C11.4829 21 11.0352 20.5523 11.0352 20C11.0352 19.4477 11.4829 19 12.0352 19C12.5874 19 13.0352 19.4477 13.0352 20C13.0352 20.5523 12.5874 21 12.0352 21Z" fill="black"/>
<path opacity="0.5" d="M12.0352 17C11.4829 17 11.0352 16.5523 11.0352 16C11.0352 15.4477 11.4829 15 12.0352 15C12.5874 15 13.0352 15.4477 13.0352 16C13.0352 16.5523 12.5874 17 12.0352 17Z" fill="black"/>
<path opacity="0.5" d="M12.0352 13C11.4829 13 11.0352 12.5523 11.0352 12C11.0352 11.4477 11.4829 11 12.0352 11C12.5874 11 13.0352 11.4477 13.0352 12C13.0352 12.5523 12.5874 13 12.0352 13Z" fill="black"/>
<path opacity="0.5" d="M12.0352 9C11.4829 9 11.0352 8.55228 11.0352 8C11.0352 7.44772 11.4829 7 12.0352 7C12.5874 7 13.0352 7.44772 13.0352 8C13.0352 8.55228 12.5874 9 12.0352 9Z" fill="black"/>
<path opacity="0.5" d="M12.0352 5C11.4829 5 11.0352 4.55228 11.0352 4C11.0352 3.44772 11.4829 3 12.0352 3C12.5874 3 13.0352 3.44772 13.0352 4C13.0352 4.55228 12.5874 5 12.0352 5Z" fill="black"/>
<path opacity="0.5" d="M4.03516 13C3.48287 13 3.03516 12.5523 3.03516 12C3.03516 11.4477 3.48287 11 4.03516 11C4.58744 11 5.03516 11.4477 5.03516 12C5.03516 12.5523 4.58744 13 4.03516 13Z" fill="black"/>
<path opacity="0.5" d="M8.03516 13C7.48287 13 7.03516 12.5523 7.03516 12C7.03516 11.4477 7.48287 11 8.03516 11C8.58744 11 9.03516 11.4477 9.03516 12C9.03516 12.5523 8.58744 13 8.03516 13Z" fill="black"/>
<path opacity="0.5" d="M16.0352 13C15.4829 13 15.0352 12.5523 15.0352 12C15.0352 11.4477 15.4829 11 16.0352 11C16.5874 11 17.0352 11.4477 17.0352 12C17.0352 12.5523 16.5874 13 16.0352 13Z" fill="black"/>
<path opacity="0.5" d="M20.0352 13C19.4829 13 19.0352 12.5523 19.0352 12C19.0352 11.4477 19.4829 11 20.0352 11C20.5874 11 21.0352 11.4477 21.0352 12C21.0352 12.5523 20.5874 13 20.0352 13Z" fill="black"/>
<path opacity="0.5" d="M4.03516 17C3.48287 17 3.03516 16.5523 3.03516 16C3.03516 15.4477 3.48287 15 4.03516 15C4.58744 15 5.03516 15.4477 5.03516 16C5.03516 16.5523 4.58744 17 4.03516 17Z" fill="black"/>
<path opacity="0.5" d="M4.03516 21C3.48287 21 3.03516 20.5523 3.03516 20C3.03516 19.4477 3.48287 19 4.03516 19C4.58744 19 5.03516 19.4477 5.03516 20C5.03516 20.5523 4.58744 21 4.03516 21Z" fill="black"/>
<path opacity="0.5" d="M4.03516 9C3.48287 9 3.03516 8.55228 3.03516 8C3.03516 7.44772 3.48287 7 4.03516 7C4.58744 7 5.03516 7.44772 5.03516 8C5.03516 8.55228 4.58744 9 4.03516 9Z" fill="black"/>
<path opacity="0.5" d="M4.03516 5C3.48287 5 3.03516 4.55228 3.03516 4C3.03516 3.44772 3.48287 3 4.03516 3C4.58744 3 5.03516 3.44772 5.03516 4C5.03516 4.55228 4.58744 5 4.03516 5Z" fill="black"/>
</g>
<defs>
<clipPath id="clip0_921_7924">
<rect width="24" height="24" fill="white" transform="matrix(-1 0 0 1 24 0)"/>
</clipPath>
</defs>
</svg>
