<svg width="24" height="24" viewBox="0 0 24 24" fill="none" xmlns="http://www.w3.org/2000/svg">
<path d="M19.9648 19H3.96484C3.69963 19 3.44527 19.1054 3.25774 19.2929C3.0702 19.4804 2.96484 19.7348 2.96484 20C2.96484 20.2652 3.0702 20.5196 3.25774 20.7071C3.44527 20.8946 3.69963 21 3.96484 21H19.9648C20.2301 21 20.4844 20.8946 20.672 20.7071C20.8595 20.5196 20.9648 20.2652 20.9648 20C20.9648 19.7348 20.8595 19.4804 20.672 19.2929C20.4844 19.1054 20.2301 19 19.9648 19Z" fill="black"/>
<path opacity="0.5" d="M3.96484 7C4.51713 7 4.96484 7.44772 4.96484 8C4.96484 8.55228 4.51713 9 3.96484 9C3.41256 9 2.96484 8.55228 2.96484 8C2.96484 7.44772 3.41256 7 3.96484 7Z" fill="black"/>
<path opacity="0.5" d="M3.96484 3C4.51713 3 4.96484 3.44772 4.96484 4C4.96484 4.55228 4.51713 5 3.96484 5C3.41256 5 2.96484 4.55228 2.96484 4C2.96484 3.44772 3.41256 3 3.96484 3Z" fill="black"/>
<path opacity="0.5" d="M3.96484 15C4.51713 15 4.96484 15.4477 4.96484 16C4.96484 16.5523 4.51713 17 3.96484 17C3.41256 17 2.96484 16.5523 2.96484 16C2.96484 15.4477 3.41256 15 3.96484 15Z" fill="black"/>
<path opacity="0.5" d="M3.96484 19C4.51713 19 4.96484 19.4477 4.96484 20C4.96484 20.5523 4.51713 21 3.96484 21C3.41256 21 2.96484 20.5523 2.96484 20C2.96484 19.4477 3.41256 19 3.96484 19Z" fill="black"/>
<path opacity="0.5" d="M7.96484 19C8.51713 19 8.96484 19.4477 8.96484 20C8.96484 20.5523 8.51713 21 7.96484 21C7.41256 21 6.96484 20.5523 6.96484 20C6.96484 19.4477 7.41256 19 7.96484 19Z" fill="black"/>
<path opacity="0.5" d="M15.9648 19C16.5171 19 16.9648 19.4477 16.9648 20C16.9648 20.5523 16.5171 21 15.9648 21C15.4126 21 14.9648 20.5523 14.9648 20C14.9648 19.4477 15.4126 19 15.9648 19Z" fill="black"/>
<path opacity="0.5" d="M7.96484 3C8.51713 3 8.96484 3.44772 8.96484 4C8.96484 4.55228 8.51713 5 7.96484 5C7.41256 5 6.96484 4.55228 6.96484 4C6.96484 3.44772 7.41256 3 7.96484 3Z" fill="black"/>
<path opacity="0.5" d="M15.9648 3C16.5171 3 16.9648 3.44772 16.9648 4C16.9648 4.55228 16.5171 5 15.9648 5C15.4126 5 14.9648 4.55228 14.9648 4C14.9648 3.44772 15.4126 3 15.9648 3Z" fill="black"/>
<path opacity="0.5" d="M11.9648 3C12.5171 3 12.9648 3.44772 12.9648 4C12.9648 4.55228 12.5171 5 11.9648 5C11.4126 5 10.9648 4.55228 10.9648 4C10.9648 3.44772 11.4126 3 11.9648 3Z" fill="black"/>
<path opacity="0.5" d="M11.9648 7C12.5171 7 12.9648 7.44772 12.9648 8C12.9648 8.55228 12.5171 9 11.9648 9C11.4126 9 10.9648 8.55228 10.9648 8C10.9648 7.44772 11.4126 7 11.9648 7Z" fill="black"/>
<path opacity="0.5" d="M11.9648 11C12.5171 11 12.9648 11.4477 12.9648 12C12.9648 12.5523 12.5171 13 11.9648 13C11.4126 13 10.9648 12.5523 10.9648 12C10.9648 11.4477 11.4126 11 11.9648 11Z" fill="black"/>
<path opacity="0.5" d="M11.9648 15C12.5171 15 12.9648 15.4477 12.9648 16C12.9648 16.5523 12.5171 17 11.9648 17C11.4126 17 10.9648 16.5523 10.9648 16C10.9648 15.4477 11.4126 15 11.9648 15Z" fill="black"/>
<path opacity="0.5" d="M19.9648 11C20.5171 11 20.9648 11.4477 20.9648 12C20.9648 12.5523 20.5171 13 19.9648 13C19.4126 13 18.9648 12.5523 18.9648 12C18.9648 11.4477 19.4126 11 19.9648 11Z" fill="black"/>
<path opacity="0.5" d="M15.9648 11C16.5171 11 16.9648 11.4477 16.9648 12C16.9648 12.5523 16.5171 13 15.9648 13C15.4126 13 14.9648 12.5523 14.9648 12C14.9648 11.4477 15.4126 11 15.9648 11Z" fill="black"/>
<path opacity="0.5" d="M7.96484 11C8.51713 11 8.96484 11.4477 8.96484 12C8.96484 12.5523 8.51713 13 7.96484 13C7.41256 13 6.96484 12.5523 6.96484 12C6.96484 11.4477 7.41256 11 7.96484 11Z" fill="black"/>
<path opacity="0.5" d="M3.96484 11C4.51713 11 4.96484 11.4477 4.96484 12C4.96484 12.5523 4.51713 13 3.96484 13C3.41256 13 2.96484 12.5523 2.96484 12C2.96484 11.4477 3.41256 11 3.96484 11Z" fill="black"/>
<path opacity="0.5" d="M19.9648 7C20.5171 7 20.9648 7.44772 20.9648 8C20.9648 8.55228 20.5171 9 19.9648 9C19.4126 9 18.9648 8.55228 18.9648 8C18.9648 7.44772 19.4126 7 19.9648 7Z" fill="black"/>
<path opacity="0.5" d="M19.9648 3C20.5171 3 20.9648 3.44772 20.9648 4C20.9648 4.55228 20.5171 5 19.9648 5C19.4126 5 18.9648 4.55228 18.9648 4C18.9648 3.44772 19.4126 3 19.9648 3Z" fill="black"/>
<path opacity="0.5" d="M19.9648 15C20.5171 15 20.9648 15.4477 20.9648 16C20.9648 16.5523 20.5171 17 19.9648 17C19.4126 17 18.9648 16.5523 18.9648 16C18.9648 15.4477 19.4126 15 19.9648 15Z" fill="black"/>
<path opacity="0.5" d="M19.9648 19C20.5171 19 20.9648 19.4477 20.9648 20C20.9648 20.5523 20.5171 21 19.9648 21C19.4126 21 18.9648 20.5523 18.9648 20C18.9648 19.4477 19.4126 19 19.9648 19Z" fill="black"/>
</svg>
