<svg width="24" height="24" viewBox="0 0 24 24" fill="none" xmlns="http://www.w3.org/2000/svg">
<path d="M3 19.9648V3.96484C3 3.69963 3.10536 3.44527 3.29289 3.25774C3.48043 3.0702 3.73478 2.96484 4 2.96484C4.26522 2.96484 4.51957 3.0702 4.70711 3.25774C4.89464 3.44527 5 3.69963 5 3.96484V19.9648C5 20.2301 4.89464 20.4844 4.70711 20.672C4.51957 20.8595 4.26522 20.9648 4 20.9648C3.73478 20.9648 3.48043 20.8595 3.29289 20.672C3.10536 20.4844 3 20.2301 3 19.9648Z" fill="black"/>
<path opacity="0.5" d="M3.96484 17C4.51713 17 4.96484 16.5523 4.96484 16C4.96484 15.4477 4.51713 15 3.96484 15C3.41256 15 2.96484 15.4477 2.96484 16C2.96484 16.5523 3.41256 17 3.96484 17Z" fill="black"/>
<path opacity="0.5" d="M3.96484 21C4.51713 21 4.96484 20.5523 4.96484 20C4.96484 19.4477 4.51713 19 3.96484 19C3.41256 19 2.96484 19.4477 2.96484 20C2.96484 20.5523 3.41256 21 3.96484 21Z" fill="black"/>
<path opacity="0.5" d="M3.96484 9C4.51713 9 4.96484 8.55228 4.96484 8C4.96484 7.44772 4.51713 7 3.96484 7C3.41256 7 2.96484 7.44772 2.96484 8C2.96484 8.55228 3.41256 9 3.96484 9Z" fill="black"/>
<path opacity="0.5" d="M3.96484 5C4.51713 5 4.96484 4.55228 4.96484 4C4.96484 3.44772 4.51713 3 3.96484 3C3.41256 3 2.96484 3.44772 2.96484 4C2.96484 4.55228 3.41256 5 3.96484 5Z" fill="black"/>
<path opacity="0.5" d="M7.96484 5C8.51713 5 8.96484 4.55228 8.96484 4C8.96484 3.44772 8.51713 3 7.96484 3C7.41256 3 6.96484 3.44772 6.96484 4C6.96484 4.55228 7.41256 5 7.96484 5Z" fill="black"/>
<path opacity="0.5" d="M15.9648 5C16.5171 5 16.9648 4.55228 16.9648 4C16.9648 3.44772 16.5171 3 15.9648 3C15.4126 3 14.9648 3.44772 14.9648 4C14.9648 4.55228 15.4126 5 15.9648 5Z" fill="black"/>
<path opacity="0.5" d="M7.96484 21C8.51713 21 8.96484 20.5523 8.96484 20C8.96484 19.4477 8.51713 19 7.96484 19C7.41256 19 6.96484 19.4477 6.96484 20C6.96484 20.5523 7.41256 21 7.96484 21Z" fill="black"/>
<path opacity="0.5" d="M15.9648 21C16.5171 21 16.9648 20.5523 16.9648 20C16.9648 19.4477 16.5171 19 15.9648 19C15.4126 19 14.9648 19.4477 14.9648 20C14.9648 20.5523 15.4126 21 15.9648 21Z" fill="black"/>
<path opacity="0.5" d="M11.9648 21C12.5171 21 12.9648 20.5523 12.9648 20C12.9648 19.4477 12.5171 19 11.9648 19C11.4126 19 10.9648 19.4477 10.9648 20C10.9648 20.5523 11.4126 21 11.9648 21Z" fill="black"/>
<path opacity="0.5" d="M11.9648 17C12.5171 17 12.9648 16.5523 12.9648 16C12.9648 15.4477 12.5171 15 11.9648 15C11.4126 15 10.9648 15.4477 10.9648 16C10.9648 16.5523 11.4126 17 11.9648 17Z" fill="black"/>
<path opacity="0.5" d="M11.9648 13C12.5171 13 12.9648 12.5523 12.9648 12C12.9648 11.4477 12.5171 11 11.9648 11C11.4126 11 10.9648 11.4477 10.9648 12C10.9648 12.5523 11.4126 13 11.9648 13Z" fill="black"/>
<path opacity="0.5" d="M11.9648 9C12.5171 9 12.9648 8.55228 12.9648 8C12.9648 7.44772 12.5171 7 11.9648 7C11.4126 7 10.9648 7.44772 10.9648 8C10.9648 8.55228 11.4126 9 11.9648 9Z" fill="black"/>
<path opacity="0.5" d="M11.9648 5C12.5171 5 12.9648 4.55228 12.9648 4C12.9648 3.44772 12.5171 3 11.9648 3C11.4126 3 10.9648 3.44772 10.9648 4C10.9648 4.55228 11.4126 5 11.9648 5Z" fill="black"/>
<path opacity="0.5" d="M19.9648 13C20.5171 13 20.9648 12.5523 20.9648 12C20.9648 11.4477 20.5171 11 19.9648 11C19.4126 11 18.9648 11.4477 18.9648 12C18.9648 12.5523 19.4126 13 19.9648 13Z" fill="black"/>
<path opacity="0.5" d="M15.9648 13C16.5171 13 16.9648 12.5523 16.9648 12C16.9648 11.4477 16.5171 11 15.9648 11C15.4126 11 14.9648 11.4477 14.9648 12C14.9648 12.5523 15.4126 13 15.9648 13Z" fill="black"/>
<path opacity="0.5" d="M7.96484 13C8.51713 13 8.96484 12.5523 8.96484 12C8.96484 11.4477 8.51713 11 7.96484 11C7.41256 11 6.96484 11.4477 6.96484 12C6.96484 12.5523 7.41256 13 7.96484 13Z" fill="black"/>
<path opacity="0.5" d="M3.96484 13C4.51713 13 4.96484 12.5523 4.96484 12C4.96484 11.4477 4.51713 11 3.96484 11C3.41256 11 2.96484 11.4477 2.96484 12C2.96484 12.5523 3.41256 13 3.96484 13Z" fill="black"/>
<path opacity="0.5" d="M19.9648 17C20.5171 17 20.9648 16.5523 20.9648 16C20.9648 15.4477 20.5171 15 19.9648 15C19.4126 15 18.9648 15.4477 18.9648 16C18.9648 16.5523 19.4126 17 19.9648 17Z" fill="black"/>
<path opacity="0.5" d="M19.9648 21C20.5171 21 20.9648 20.5523 20.9648 20C20.9648 19.4477 20.5171 19 19.9648 19C19.4126 19 18.9648 19.4477 18.9648 20C18.9648 20.5523 19.4126 21 19.9648 21Z" fill="black"/>
<path opacity="0.5" d="M19.9648 9C20.5171 9 20.9648 8.55228 20.9648 8C20.9648 7.44772 20.5171 7 19.9648 7C19.4126 7 18.9648 7.44772 18.9648 8C18.9648 8.55228 19.4126 9 19.9648 9Z" fill="black"/>
<path opacity="0.5" d="M19.9648 5C20.5171 5 20.9648 4.55228 20.9648 4C20.9648 3.44772 20.5171 3 19.9648 3C19.4126 3 18.9648 3.44772 18.9648 4C18.9648 4.55228 19.4126 5 19.9648 5Z" fill="black"/>
</svg>
