<svg width="24" height="24" viewBox="0 0 24 24" fill="none" xmlns="http://www.w3.org/2000/svg">
<g clip-path="url(#clip0_921_7641)">
<path d="M11.9999 24C9.06652 24 6.49586 23.0793 4.28786 21.238C2.07986 19.3967 0.708524 17.0757 0.173858 14.275C0.124524 13.9917 0.178858 13.7333 0.336858 13.5C0.494858 13.2667 0.715858 13.1333 0.999858 13.1C1.28386 13.0667 1.53386 13.1377 1.74986 13.313C1.96586 13.4883 2.09919 13.7173 2.14986 14C2.58319 16.1833 3.62086 18.0083 5.26286 19.475C6.90486 20.9417 8.85052 21.7667 11.0999 21.95L10.2499 21.1C10.0665 20.9167 9.97486 20.6833 9.97486 20.4C9.97486 20.1167 10.0665 19.8833 10.2499 19.7C10.4332 19.5167 10.6665 19.425 10.9499 19.425C11.2332 19.425 11.4665 19.5167 11.6499 19.7L14.9499 23C15.0665 23.1167 15.1042 23.25 15.0629 23.4C15.0215 23.55 14.9255 23.6417 14.7749 23.675C14.3249 23.7917 13.8709 23.875 13.4129 23.925C12.9549 23.975 12.4839 24 11.9999 24ZM8.99986 17C8.44986 17 7.97919 16.8043 7.58786 16.413C7.19652 16.0217 7.00052 15.5507 6.99986 15V9H5.99986C5.71652 9 5.47919 8.904 5.28786 8.712C5.09652 8.52 5.00052 8.28267 4.99986 8C4.99919 7.71733 5.09519 7.48 5.28786 7.288C5.48052 7.096 5.71786 7 5.99986 7H6.99986V6C6.99986 5.71667 7.09586 5.47933 7.28786 5.288C7.47986 5.09667 7.71719 5.00067 7.99986 5C8.28252 4.99933 8.52019 5.09533 8.71286 5.288C8.90553 5.48067 9.00119 5.718 8.99986 6V15H17.9999C18.2832 15 18.5209 15.096 18.7129 15.288C18.9049 15.48 19.0005 15.7173 18.9999 16C18.9992 16.2827 18.9032 16.5203 18.7119 16.713C18.5205 16.9057 18.2832 17.0013 17.9999 17H16.9999V18C16.9999 18.2833 16.9039 18.521 16.7119 18.713C16.5199 18.905 16.2825 19.0007 15.9999 19C15.7172 18.9993 15.4799 18.9033 15.2879 18.712C15.0959 18.5207 14.9999 18.2833 14.9999 18V17H8.99986ZM14.9999 13V9H10.9999V7H14.9999C15.5499 7 16.0209 7.196 16.4129 7.588C16.8049 7.98 17.0005 8.45067 16.9999 9V13H14.9999ZM11.9999 0C14.9332 0 17.5042 0.916667 19.7129 2.75C21.9215 4.58333 23.2922 6.90833 23.8249 9.725C23.8749 10.0083 23.8209 10.2667 23.6629 10.5C23.5049 10.7333 23.2839 10.8667 22.9999 10.9C22.7159 10.9333 22.4659 10.8623 22.2499 10.687C22.0339 10.5117 21.9005 10.2827 21.8499 10C21.4165 7.81667 20.3789 5.99167 18.7369 4.525C17.0949 3.05833 15.1492 2.23333 12.8999 2.05L13.7499 2.9C13.9332 3.08333 14.0249 3.31667 14.0249 3.6C14.0249 3.88333 13.9332 4.11667 13.7499 4.3C13.5665 4.48333 13.3332 4.575 13.0499 4.575C12.7665 4.575 12.5332 4.48333 12.3499 4.3L9.04986 1C8.93319 0.883333 8.89586 0.75 8.93786 0.6C8.97986 0.45 9.07553 0.358333 9.22486 0.325C9.67486 0.208333 10.1292 0.125 10.5879 0.075C11.0465 0.025 11.5172 0 11.9999 0Z" fill="#333333"/>
</g>
<defs>
<clipPath id="clip0_921_7641">
<rect width="24" height="24" fill="white"/>
</clipPath>
</defs>
</svg>
