<svg width="30" height="30" viewBox="0 0 30 30" fill="none" xmlns="http://www.w3.org/2000/svg">
<path d="M14.9994 23.2494L6.74938 14.9994L14.9994 6.74938L17.7463 9.49626L12.2525 14.9994L14.9994 17.7463L23.2494 9.49626L16.0588 2.31501C15.7776 2.03449 15.3966 1.87695 14.9994 1.87695C14.6022 1.87695 14.2212 2.03449 13.94 2.31501L2.31501 13.94C2.03449 14.2212 1.87695 14.6022 1.87695 14.9994C1.87695 15.3966 2.03449 15.7776 2.31501 16.0588L13.94 27.6838C14.2212 27.9643 14.6022 28.1218 14.9994 28.1218C15.3966 28.1218 15.7776 27.9643 16.0588 27.6838L27.6838 16.0588C27.9643 15.7776 28.1218 15.3966 28.1218 14.9994C28.1218 14.6022 27.9643 14.2212 27.6838 13.94L25.9963 12.2525L14.9994 23.2494Z" fill="#333333"/>
</svg>
