<svg  class="small-icon-size" width="30" height="30" viewBox="0 0 30 30" fill="currentColor" xmlns="http://www.w3.org/2000/svg">
<path d="M14.0625 3.75H15.9375V26.25H14.0625V3.75ZM9.375 6.5625V23.4375H3.75V6.5625H9.375ZM9.375 4.6875H3.75C3.25272 4.6875 2.77581 4.88504 2.42417 5.23667C2.07254 5.58831 1.875 6.06522 1.875 6.5625V23.4375C1.875 23.9348 2.07254 24.4117 2.42417 24.7633C2.77581 25.115 3.25272 25.3125 3.75 25.3125H9.375C9.87228 25.3125 10.3492 25.115 10.7008 24.7633C11.0525 24.4117 11.25 23.9348 11.25 23.4375V6.5625C11.25 6.06522 11.0525 5.58831 10.7008 5.23667C10.3492 4.88504 9.87228 4.6875 9.375 4.6875ZM26.25 6.5625V23.4375H20.625V6.5625H26.25ZM26.25 4.6875H20.625C20.1277 4.6875 19.6508 4.88504 19.2992 5.23667C18.9475 5.58831 18.75 6.06522 18.75 6.5625V23.4375C18.75 23.9348 18.9475 24.4117 19.2992 24.7633C19.6508 25.115 20.1277 25.3125 20.625 25.3125H26.25C26.7473 25.3125 27.2242 25.115 27.5758 24.7633C27.9275 24.4117 28.125 23.9348 28.125 23.4375V6.5625C28.125 6.06522 27.9275 5.58831 27.5758 5.23667C27.2242 4.88504 26.7473 4.6875 26.25 4.6875Z" fill="currentColor"/>
</svg>
