<svg class="small-icon-size" width="42" height="42" viewBox="0 0 42 42" fill="currentColor" xmlns="http://www.w3.org/2000/svg">
<path d="M22.0492 5.24922C22.0492 4.97074 21.9386 4.70367 21.7417 4.50676C21.5448 4.30984 21.2777 4.19922 20.9992 4.19922C20.7207 4.19922 20.4537 4.30984 20.2568 4.50676C20.0598 4.70367 19.9492 4.97074 19.9492 5.24922V36.7492C19.9492 37.0277 20.0598 37.2948 20.2568 37.4917C20.4537 37.6886 20.7207 37.7992 20.9992 37.7992C21.2777 37.7992 21.5448 37.6886 21.7417 37.4917C21.9386 37.2948 22.0492 37.0277 22.0492 36.7492V5.24922ZM14.6992 7.34922C14.6992 7.07074 14.8098 6.80367 15.0068 6.60676C15.2037 6.40984 15.4707 6.29922 15.7492 6.29922H16.7992C17.0777 6.29922 17.3448 6.40984 17.5417 6.60676C17.7386 6.80367 17.8492 7.07074 17.8492 7.34922C17.8492 7.6277 17.7386 7.89477 17.5417 8.09168C17.3448 8.28859 17.0777 8.39922 16.7992 8.39922H15.7492C15.4707 8.39922 15.2037 8.28859 15.0068 8.09168C14.8098 7.89477 14.6992 7.6277 14.6992 7.34922ZM15.7492 33.5992C15.4707 33.5992 15.2037 33.7098 15.0068 33.9068C14.8098 34.1037 14.6992 34.3707 14.6992 34.6492C14.6992 34.9277 14.8098 35.1948 15.0068 35.3917C15.2037 35.5886 15.4707 35.6992 15.7492 35.6992H16.7992C17.0777 35.6992 17.3448 35.5886 17.5417 35.3917C17.7386 35.1948 17.8492 34.9277 17.8492 34.6492C17.8492 34.3707 17.7386 34.1037 17.5417 33.9068C17.3448 33.7098 17.0777 33.5992 16.7992 33.5992H15.7492ZM4.19922 12.5992C4.19922 10.9284 4.86297 9.32593 6.04445 8.14445C7.22593 6.96297 8.82835 6.29922 10.4992 6.29922H11.5492C11.8277 6.29922 12.0948 6.40984 12.2917 6.60676C12.4886 6.80367 12.5992 7.07074 12.5992 7.34922C12.5992 7.6277 12.4886 7.89477 12.2917 8.09168C12.0948 8.28859 11.8277 8.39922 11.5492 8.39922H10.4992C9.38531 8.39922 8.31702 8.84172 7.52937 9.62937C6.74172 10.417 6.29922 11.4853 6.29922 12.5992V13.6492C6.29922 13.9277 6.18859 14.1948 5.99168 14.3917C5.79477 14.5886 5.5277 14.6992 5.24922 14.6992C4.97074 14.6992 4.70367 14.5886 4.50676 14.3917C4.30984 14.1948 4.19922 13.9277 4.19922 13.6492V12.5992ZM10.4992 35.6992C8.82835 35.6992 7.22593 35.0355 6.04445 33.854C4.86297 32.6725 4.19922 31.0701 4.19922 29.3992V28.3492C4.19922 28.0707 4.30984 27.8037 4.50676 27.6068C4.70367 27.4098 4.97074 27.2992 5.24922 27.2992C5.5277 27.2992 5.79477 27.4098 5.99168 27.6068C6.18859 27.8037 6.29922 28.0707 6.29922 28.3492V29.3992C6.29922 30.5131 6.74172 31.5814 7.52937 32.3691C8.31702 33.1567 9.38531 33.5992 10.4992 33.5992H11.5492C11.8277 33.5992 12.0948 33.7098 12.2917 33.9068C12.4886 34.1037 12.5992 34.3707 12.5992 34.6492C12.5992 34.9277 12.4886 35.1948 12.2917 35.3917C12.0948 35.5886 11.8277 35.6992 11.5492 35.6992H10.4992ZM5.24922 16.7992C5.5277 16.7992 5.79477 16.9098 5.99168 17.1068C6.18859 17.3037 6.29922 17.5707 6.29922 17.8492V24.1492C6.29922 24.4277 6.18859 24.6948 5.99168 24.8917C5.79477 25.0886 5.5277 25.1992 5.24922 25.1992C4.97074 25.1992 4.70367 25.0886 4.50676 24.8917C4.30984 24.6948 4.19922 24.4277 4.19922 24.1492V17.8492C4.19922 17.5707 4.30984 17.3037 4.50676 17.1068C4.70367 16.9098 4.97074 16.7992 5.24922 16.7992ZM24.1492 23.7103V35.6992H31.4992C32.8077 35.7019 34.0842 35.2942 35.149 34.5337L34.96 34.3447L24.1492 23.7103ZM24.1492 6.29922V21.1735C24.5671 21.3205 24.9598 21.562 25.2958 21.8938L36.4426 32.8558L36.6337 33.049C37.3687 32.02 37.7992 30.76 37.7992 29.3992V12.5992C37.7992 10.9284 37.1355 9.32593 35.954 8.14445C34.7725 6.96297 33.1701 6.29922 31.4992 6.29922H24.1492ZM33.5992 15.7492C33.5992 16.5847 33.2673 17.3859 32.6766 17.9766C32.0859 18.5673 31.2846 18.8992 30.4492 18.8992C29.6138 18.8992 28.8126 18.5673 28.2218 17.9766C27.6311 17.3859 27.2992 16.5847 27.2992 15.7492C27.2992 14.9138 27.6311 14.1126 28.2218 13.5218C28.8126 12.9311 29.6138 12.5992 30.4492 12.5992C31.2846 12.5992 32.0859 12.9311 32.6766 13.5218C33.2673 14.1126 33.5992 14.9138 33.5992 15.7492Z" fill="currentColor" fill-opacity="0.6"/>
</svg>
