<svg width="30" height="30" viewBox="0 0 30 30" fill="none" xmlns="http://www.w3.org/2000/svg">
<path d="M18.75 17.8125H16.875V12.1875H18.75V17.8125ZM18.75 22.5V27.1875C18.75 27.4361 18.6512 27.6746 18.4754 27.8504C18.2996 28.0262 18.0611 28.125 17.8125 28.125H12.1875C11.9389 28.125 11.7004 28.0262 11.5246 27.8504C11.3488 27.6746 11.25 27.4361 11.25 27.1875V22.5H13.125V26.25H16.875V22.5H18.75ZM11.25 17.8125V12.1875H13.125V17.8125H11.25ZM18.75 7.5H16.875V3.75H13.125V7.5H11.25V2.8125C11.25 2.56386 11.3488 2.3254 11.5246 2.14959C11.7004 1.97377 11.9389 1.875 12.1875 1.875H17.8125C18.0611 1.875 18.2996 1.97377 18.4754 2.14959C18.6512 2.3254 18.75 2.56386 18.75 2.8125V7.5Z" fill="black"/>
<path d="M6.46853 7.5L4.38166 9.84375L6.46666 12.1875H22.4998V7.5H6.46853ZM6.04666 5.625H23.4373C23.6859 5.625 23.9244 5.72377 24.1002 5.89959C24.276 6.0754 24.3748 6.31386 24.3748 6.5625V13.125C24.3748 13.3736 24.276 13.6121 24.1002 13.7879C23.9244 13.9637 23.6859 14.0625 23.4373 14.0625H6.04666C5.91415 14.0625 5.78313 14.0345 5.66226 13.9802C5.54138 13.9259 5.43339 13.8466 5.34541 13.7475L2.42791 10.4662C2.27555 10.2947 2.19141 10.0732 2.19141 9.84375C2.19141 9.6143 2.27555 9.39282 2.42791 9.22125L5.34541 5.94C5.43339 5.84092 5.54138 5.76161 5.66226 5.70732C5.78313 5.65302 5.91415 5.62496 6.04666 5.625ZM25.9329 20.1562L23.8498 22.5H7.81666V17.8125H23.8479L25.9329 20.1562ZM24.2698 15.9375H6.88103C6.63239 15.9375 6.39393 16.0363 6.21812 16.2121C6.0423 16.3879 5.94353 16.6264 5.94353 16.875V23.4375C5.94353 23.6861 6.0423 23.9246 6.21812 24.1004C6.39393 24.2762 6.63239 24.375 6.88103 24.375H24.2717C24.4042 24.375 24.5352 24.347 24.6561 24.2927C24.7769 24.2384 24.8849 24.1591 24.9729 24.06L27.8904 20.7787C28.0428 20.6072 28.1269 20.3857 28.1269 20.1562C28.1269 19.9268 28.0428 19.7053 27.8904 19.5338L24.9729 16.2525C24.8849 16.1534 24.7769 16.0741 24.6561 16.0198C24.5352 15.9655 24.4042 15.9375 24.2717 15.9375H24.2698Z" fill="black"/>
</svg>
