<svg class="small-icon-size" width="30" height="30" viewBox="0 0 30 30" fill="currentColor" xmlns="http://www.w3.org/2000/svg">
<path d="M7.40557 15.74V20H6.58357V18.182H4.65157V20H3.82357V15.74H4.65157V17.462H6.58357V15.74H7.40557ZM11.6003 16.466H10.2383V20H9.41627V16.466H8.05427V15.74H11.6003V16.466ZM15.7231 20V17.204L14.6311 19.286H14.1691L13.0771 17.204V20H12.2491V15.74H13.1371L14.3971 18.164L15.6691 15.74H16.5511V20H15.7231ZM17.5605 20V15.74H18.3885V19.274H20.5605V20H17.5605Z" fill="currentColor"/>
<path d="M24.8719 9.81563L18.3094 3.25312C18.1776 3.12123 17.9989 3.04704 17.8125 3.04688H6.5625C6.12738 3.04688 5.71008 3.21973 5.4024 3.5274C5.09473 3.83508 4.92188 4.25238 4.92188 4.6875V13.125C4.92188 13.3115 4.99595 13.4903 5.12782 13.6222C5.25968 13.754 5.43852 13.8281 5.625 13.8281C5.81148 13.8281 5.99032 13.754 6.12218 13.6222C6.25405 13.4903 6.32812 13.3115 6.32812 13.125V4.6875C6.32812 4.62534 6.35282 4.56573 6.39677 4.52177C6.44073 4.47782 6.50034 4.45312 6.5625 4.45312H17.1094V10.3125C17.1094 10.499 17.1835 10.6778 17.3153 10.8097C17.4472 10.9415 17.626 11.0156 17.8125 11.0156H23.6719V13.125C23.6719 13.3115 23.746 13.4903 23.8778 13.6222C24.0097 13.754 24.1885 13.8281 24.375 13.8281C24.5615 13.8281 24.7403 13.754 24.8722 13.6222C25.004 13.4903 25.0781 13.3115 25.0781 13.125V10.3125C25.078 10.1261 25.0038 9.94736 24.8719 9.81563ZM18.5156 9.60938V5.44688L22.6781 9.60938H18.5156Z" fill="currentColor"/>
</svg>
