<svg class="small-icon-size" width="30" height="30" viewBox="0 0 30 30" fill="currentColor" xmlns="http://www.w3.org/2000/svg">
<g clip-path="url(#clip0_459_588)">
<path d="M21.1588 21.2086C20.9741 21.0888 20.7494 21.0469 20.534 21.0922C20.3185 21.1375 20.1297 21.2662 20.0088 21.4503C18.8338 23.2503 16.6755 25.4586 14.7505 26.2003C12.8255 26.9419 11.3171 26.6753 10.7171 26.2003C10.4588 25.9753 9.78381 25.3669 10.3588 23.2919C10.7421 21.9086 13.1255 15.3919 13.6921 13.8086L11.8755 14.0419C11.3005 15.5919 9.13381 21.4086 8.74215 22.8586C8.17548 24.9336 8.45881 26.4419 9.65048 27.4919C10.4834 28.0755 11.4841 28.3711 12.5005 28.3336C13.4868 28.32 14.4619 28.1221 15.3755 27.7503C17.7005 26.8419 20.1421 24.3169 21.4255 22.3586C21.4837 22.2656 21.5229 22.1621 21.541 22.0539C21.5591 21.9457 21.5557 21.8351 21.5309 21.7282C21.5061 21.6214 21.4605 21.5205 21.3967 21.4313C21.3328 21.3422 21.252 21.2665 21.1588 21.2086Z" fill="currentColor"/>
<path d="M16.084 9.16602C16.8257 9.16602 17.5507 8.94608 18.1674 8.53403C18.7841 8.12197 19.2647 7.5363 19.5485 6.85108C19.8324 6.16586 19.9066 5.41186 19.7619 4.68443C19.6172 3.957 19.2601 3.28881 18.7356 2.76437C18.2112 2.23992 17.543 1.88277 16.8156 1.73807C16.0881 1.59338 15.3341 1.66764 14.6489 1.95147C13.9637 2.2353 13.378 2.71594 12.966 3.33263C12.5539 3.94931 12.334 4.67434 12.334 5.41602C12.334 6.41058 12.7291 7.36441 13.4323 8.06767C14.1356 8.77093 15.0894 9.16602 16.084 9.16602ZM16.084 3.33268C16.496 3.33268 16.8988 3.45487 17.2414 3.68379C17.584 3.91271 17.8511 4.23808 18.0087 4.61876C18.1664 4.99944 18.2077 5.41833 18.1273 5.82246C18.0469 6.22658 17.8485 6.5978 17.5571 6.88916C17.2658 7.18052 16.8945 7.37893 16.4904 7.45932C16.0863 7.53971 15.6674 7.49845 15.2867 7.34077C14.906 7.18308 14.5807 6.91606 14.3518 6.57345C14.1228 6.23085 14.0007 5.82806 14.0007 5.41602C14.0007 4.86348 14.2201 4.33358 14.6108 3.94288C15.0015 3.55218 15.5314 3.33268 16.084 3.33268Z" fill="currentColor"/>
<path d="M9.84074 12.4999C9.89074 12.4999 15.0657 11.8166 16.2824 11.6666C16.8241 11.5833 17.2324 11.6666 17.3657 11.7916C17.4991 11.9166 17.5407 12.4583 17.3074 13.1916C16.7991 14.7416 14.2324 22.3583 13.4824 24.6166C13.849 24.5414 14.2086 24.4355 14.5574 24.2999C14.8911 24.162 15.2118 23.9947 15.5157 23.7999C16.5407 20.8333 18.4574 15.0833 18.8907 13.7666C19.3241 12.4499 19.2157 11.4499 18.6407 10.7666C18.3127 10.434 17.9021 10.1947 17.4511 10.0731C17 9.95158 16.5248 9.9522 16.0741 10.0749C14.8824 10.1999 9.84907 10.8583 9.63241 10.9083C9.41139 10.937 9.21084 11.0523 9.07488 11.2289C8.93892 11.4055 8.87867 11.6289 8.90741 11.8499C8.93614 12.0709 9.05149 12.2715 9.22809 12.4074C9.40468 12.5434 9.62806 12.6037 9.84907 12.5749L9.84074 12.4999Z" fill="currentColor"/>
</g>
<defs>
<clipPath id="clip0_459_588">
<rect width="30" height="30" fill="currentColor"/>
</clipPath>
</defs>
</svg>
