<svg width="30" height="30" viewBox="0 0 30 30" fill="none" xmlns="http://www.w3.org/2000/svg">
<path d="M3.26245 23.75C3.86245 23.75 4.39995 23.375 4.58745 22.8125L5.84995 19.275H12.9125L14.15 22.8C14.35 23.375 14.8875 23.75 15.4875 23.75C16.475 23.75 17.15 22.7625 16.8 21.85L11.4875 7.7125C11.1625 6.8375 10.3125 6.25 9.37495 6.25C8.43745 6.25 7.58745 6.8375 7.26245 7.7125L1.94995 21.85C1.59995 22.7625 2.28745 23.75 3.26245 23.75ZM9.29995 9.5H9.44995L11.9875 16.7375H6.76245L9.29995 9.5ZM18.75 15C18.75 14.3125 19.3125 13.75 20 13.75H22.5V11.25C22.5 10.5625 23.0625 10 23.75 10C24.4375 10 25 10.5625 25 11.25V13.75H27.5C28.1875 13.75 28.75 14.3125 28.75 15C28.75 15.6875 28.1875 16.25 27.5 16.25H25V18.75C25 19.4375 24.4375 20 23.75 20C23.0625 20 22.5 19.4375 22.5 18.75V16.25H20C19.3125 16.25 18.75 15.6875 18.75 15Z" fill="black"/>
</svg>
