<svg class="small-icon-size" width="30" height="30" viewBox="0 0 30 30" fill="currentColor" xmlns="http://www.w3.org/2000/svg">
<path d="M6.5914 19.13C6.6434 19.166 6.7354 19.21 6.8674 19.262C6.9994 19.31 7.1554 19.334 7.3354 19.334C7.4914 19.334 7.6194 19.308 7.7194 19.256C7.8194 19.2 7.8954 19.118 7.9474 19.01C8.0034 18.902 8.0394 18.762 8.0554 18.59C8.0754 18.418 8.0854 18.212 8.0854 17.972V15.74H8.9134V17.906C8.9134 18.226 8.8954 18.518 8.8594 18.782C8.8234 19.046 8.7534 19.274 8.6494 19.466C8.5454 19.658 8.3874 19.806 8.1754 19.91C7.9674 20.014 7.6894 20.066 7.3414 20.066C7.1494 20.066 6.9774 20.044 6.8254 20C6.6734 19.956 6.5334 19.89 6.4054 19.802L6.5914 19.13ZM9.87466 20V15.74H11.6807C11.8767 15.74 12.0567 15.78 12.2207 15.86C12.3847 15.94 12.5267 16.048 12.6467 16.184C12.7707 16.32 12.8667 16.472 12.9347 16.64C13.0027 16.808 13.0367 16.98 13.0367 17.156C13.0367 17.396 12.9807 17.624 12.8687 17.84C12.7567 18.056 12.6027 18.232 12.4067 18.368C12.2107 18.504 11.9787 18.572 11.7107 18.572H10.7027V20H9.87466ZM10.7027 17.846H11.6627C11.7627 17.846 11.8527 17.818 11.9327 17.762C12.0127 17.706 12.0767 17.626 12.1247 17.522C12.1727 17.414 12.1967 17.292 12.1967 17.156C12.1967 17.008 12.1687 16.882 12.1127 16.778C12.0607 16.674 11.9907 16.596 11.9027 16.544C11.8187 16.492 11.7267 16.466 11.6267 16.466H10.7027V17.846ZM15.5029 20.03C15.2269 20.03 14.9649 19.974 14.7169 19.862C14.4729 19.75 14.2569 19.596 14.0689 19.4C13.8849 19.2 13.7409 18.968 13.6369 18.704C13.5329 18.44 13.4809 18.154 13.4809 17.846C13.4809 17.554 13.5329 17.28 13.6369 17.024C13.7409 16.764 13.8869 16.536 14.0749 16.34C14.2629 16.144 14.4829 15.99 14.7349 15.878C14.9869 15.766 15.2609 15.71 15.5569 15.71C15.9569 15.71 16.2989 15.796 16.5829 15.968C16.8709 16.136 17.0869 16.36 17.2309 16.64L16.6129 17.096C16.5049 16.884 16.3529 16.722 16.1569 16.61C15.9649 16.498 15.7549 16.442 15.5269 16.442C15.3469 16.442 15.1829 16.48 15.0349 16.556C14.8869 16.632 14.7589 16.736 14.6509 16.868C14.5429 17 14.4589 17.152 14.3989 17.324C14.3429 17.496 14.3149 17.678 14.3149 17.87C14.3149 18.074 14.3449 18.262 14.4049 18.434C14.4689 18.606 14.5569 18.756 14.6689 18.884C14.7849 19.012 14.9189 19.114 15.0709 19.19C15.2229 19.262 15.3909 19.298 15.5749 19.298C15.7909 19.298 15.9969 19.242 16.1929 19.13C16.3929 19.018 16.5789 18.854 16.7509 18.638V19.454C16.3949 19.838 15.9789 20.03 15.5029 20.03ZM16.6909 18.416H15.8329V17.81H17.3749V20H16.6909V18.416Z" fill="currentColor"/>
<path d="M24.8719 9.81563L18.3094 3.25312C18.1776 3.12123 17.9989 3.04704 17.8125 3.04688H6.5625C6.12738 3.04688 5.71008 3.21973 5.4024 3.5274C5.09473 3.83508 4.92188 4.25238 4.92188 4.6875V13.125C4.92188 13.3115 4.99595 13.4903 5.12782 13.6222C5.25968 13.754 5.43852 13.8281 5.625 13.8281C5.81148 13.8281 5.99032 13.754 6.12218 13.6222C6.25405 13.4903 6.32812 13.3115 6.32812 13.125V4.6875C6.32812 4.62534 6.35282 4.56573 6.39677 4.52177C6.44073 4.47782 6.50034 4.45312 6.5625 4.45312H17.1094V10.3125C17.1094 10.499 17.1835 10.6778 17.3153 10.8097C17.4472 10.9415 17.626 11.0156 17.8125 11.0156H23.6719V13.125C23.6719 13.3115 23.746 13.4903 23.8778 13.6222C24.0097 13.754 24.1885 13.8281 24.375 13.8281C24.5615 13.8281 24.7403 13.754 24.8722 13.6222C25.004 13.4903 25.0781 13.3115 25.0781 13.125V10.3125C25.078 10.1261 25.0038 9.94736 24.8719 9.81563ZM18.5156 9.60938V5.44688L22.6781 9.60938H18.5156Z" fill="currentColor"/>
</svg>
