<svg class="small-icon-size" width="30" height="30" viewBox="0 0 30 30" fill="none" xmlns="http://www.w3.org/2000/svg">
  <path d="M4.375 16.25V15.2462C4.375 11.5362 4.375 9.6825 4.96125 8.20125C5.90375 5.82 7.89625 3.94125 10.4237 3.0525C11.9937 2.5 13.96 2.5 17.8975 2.5C20.145 2.5 21.27 2.5 22.1675 2.81625C23.6112 3.32375 24.75 4.3975 25.2888 5.7575C25.6238 6.60375 25.6238 7.66375 25.6238 9.7825V16.2513" stroke="currentColor" stroke-width="1.5" stroke-linecap="round" stroke-linejoin="round"/>
  <path d="M4.375 15C4.375 13.895 4.81394 12.8353 5.59527 12.054C6.37659 11.2727 7.43629 10.8337 8.54125 10.8337C9.37375 10.8337 10.355 10.98 11.1637 10.7625C11.5168 10.6676 11.8388 10.4817 12.0974 10.2232C12.3561 9.96482 12.5423 9.64301 12.6375 9.29C12.8537 8.48125 12.7087 7.5 12.7087 6.6675C12.7086 6.12028 12.8162 5.57838 13.0255 5.07276C13.2348 4.56714 13.5417 4.10771 13.9286 3.72071C14.3155 3.3337 14.7748 3.02671 15.2804 2.81726C15.7859 2.6078 16.3278 2.5 16.875 2.5M8.57 20V24.7688C8.57 25.6988 8.46625 26.6925 7.65875 27.1625C7.28606 27.3777 6.86411 27.4931 6.43375 27.4975C6.17299 27.5047 5.914 27.4526 5.67626 27.3452C5.43853 27.2378 5.22825 27.0779 5.06125 26.8775C4.58625 26.31 4.42375 25.7937 4.375 24.9712M12.805 27.4563V20H15.2887C16.2037 20 17.0187 20.6575 17.0512 21.5663C17.0579 21.7638 17.0579 21.9588 17.0512 22.1513C17.0175 23.0663 16.1987 23.7287 15.2787 23.7287H13.75M25.625 21.2425C25.575 20.2312 24.9975 19.9763 23.125 20H21.875C21.185 20 20.625 20.5562 20.625 21.2425V26.2138C20.625 26.9013 21.185 27.4563 21.875 27.4563H25C25.345 27.4563 25.625 27.1788 25.625 26.835V24.9712C25.624 24.8061 25.5577 24.6481 25.4406 24.5317C25.3235 24.4153 25.1651 24.35 25 24.35H23.75" stroke="currentColor" stroke-width="1.5" stroke-linecap="round" stroke-linejoin="round"/>
</svg>
