<svg class="small-icon-size" width="30" height="30" viewBox="0 0 30 30" fill="currentColor" xmlns="http://www.w3.org/2000/svg">
<g clip-path="url(#clip0_459_619)">
<path d="M26.666 5H3.33268C2.89065 5 2.46673 5.17559 2.15417 5.48816C1.84161 5.80072 1.66602 6.22464 1.66602 6.66667V23.3333C1.66602 23.7754 1.84161 24.1993 2.15417 24.5118C2.46673 24.8244 2.89065 25 3.33268 25H15.8327L16.3077 24.4167L17.0827 23.4667L17.0077 23.3333H3.33268V6.66667H26.666V13.8C27.2992 14.2097 27.862 14.7191 28.3327 15.3083V6.66667C28.3327 6.22464 28.1571 5.80072 27.8445 5.48816C27.532 5.17559 27.108 5 26.666 5Z" fill="currentColor"/>
<path d="M5.83398 10H20.0007V11.3333H5.83398V10Z" fill="currentColor"/>
<path d="M5.83398 13.334H15.0007V14.6673H5.83398V13.334Z" fill="currentColor"/>
<path d="M5.83398 19.166H14.1673V20.4993H5.83398V19.166Z" fill="currentColor"/>
<path d="M22.8831 14.3576C21.8167 14.3491 20.7726 14.6625 19.8871 15.2569C19.0017 15.8513 18.3162 16.6989 17.9201 17.6891C17.524 18.6792 17.4359 19.7658 17.6672 20.8068C17.8984 21.8479 18.4384 22.7949 19.2164 23.5243L17.5998 25.4993L18.3498 28.5076L21.3998 24.7909C22.3652 25.0764 23.3926 25.0764 24.3581 24.7909L27.4081 28.5076L28.1581 25.4993L26.5414 23.5243C27.3195 22.7949 27.8594 21.8479 28.0907 20.8068C28.322 19.7658 28.2338 18.6792 27.8378 17.6891C27.4417 16.6989 26.7562 15.8513 25.8707 15.2569C24.9853 14.6625 23.9412 14.3491 22.8748 14.3576H22.8831ZM22.8831 23.2576C22.1749 23.2477 21.4855 23.0287 20.9015 22.6281C20.3175 22.2275 19.8649 21.6632 19.6007 21.0061C19.3365 20.349 19.2725 19.6285 19.4167 18.9351C19.5608 18.2417 19.9068 17.6064 20.411 17.1091C20.9153 16.6118 21.5553 16.2746 22.2506 16.14C22.9459 16.0055 23.6655 16.0795 24.3189 16.3527C24.9723 16.626 25.5303 17.0863 25.9228 17.6758C26.3153 18.2653 26.5247 18.9577 26.5248 19.6659C26.516 20.6244 26.1279 21.5404 25.4454 22.2135C24.7629 22.8866 23.8416 23.262 22.8831 23.2576Z" fill="currentColor"/>
</g>
<defs>
<clipPath id="clip0_459_619">
<rect width="30" height="30" fill="currentColor"/>
</clipPath>
</defs>
</svg>
