<svg width="30" height="30" viewBox="0 0 30 30" fill="none" xmlns="http://www.w3.org/2000/svg">
<path d="M20.0007 10H10.0007V20H20.0007M20.0007 10V20M20.0007 10H23.7507C24.4924 10 25.2174 9.78007 25.8341 9.36801C26.4508 8.95596 26.9314 8.37029 27.2153 7.68506C27.4991 6.99984 27.5733 6.24584 27.4286 5.51841C27.284 4.79098 26.9268 4.1228 26.4024 3.59835C25.8779 3.0739 25.2097 2.71675 24.4823 2.57206C23.7549 2.42736 23.0009 2.50162 22.3156 2.78545C21.6304 3.06928 21.0447 3.54993 20.6327 4.16661C20.2206 4.7833 20.0007 5.50832 20.0007 6.25V10ZM20.0007 20L23.7507 20.0013C24.4924 20.0013 25.2174 20.2212 25.8341 20.6332C26.4508 21.0453 26.9314 21.631 27.2153 22.3162C27.4991 23.0014 27.5733 23.7554 27.4286 24.4828C27.284 25.2103 26.9268 25.8785 26.4024 26.4029C25.8779 26.9273 25.2097 27.2845 24.4823 27.4292C23.7549 27.5739 23.0009 27.4996 22.3156 27.2158C21.6304 26.932 21.0447 26.4513 20.6327 25.8346C20.2206 25.218 20.0007 24.4929 20.0007 23.7513V20ZM10.002 20.0013H6.25195C5.51027 20.0013 4.78525 20.2212 4.16857 20.6332C3.55188 21.0453 3.07124 21.631 2.78741 22.3162C2.50358 23.0014 2.42932 23.7554 2.57401 24.4828C2.7187 25.2103 3.07586 25.8785 3.6003 26.4029C4.12475 26.9273 4.79294 27.2845 5.52037 27.4292C6.2478 27.5739 7.00179 27.4996 7.68702 27.2158C8.37224 26.932 8.95791 26.4513 9.36997 25.8346C9.78202 25.218 10.002 24.4929 10.002 23.7513V20.0013ZM10.002 10H6.25195C5.51027 10 4.78525 9.78007 4.16857 9.36801C3.55188 8.95596 3.07124 8.37029 2.78741 7.68506C2.50358 6.99984 2.42932 6.24584 2.57401 5.51841C2.7187 4.79098 3.07586 4.1228 3.6003 3.59835C4.12475 3.0739 4.79294 2.71675 5.52037 2.57206C6.2478 2.42736 7.00179 2.50162 7.68702 2.78545C8.37224 3.06928 8.95791 3.54993 9.36997 4.16661C9.78202 4.7833 10.002 5.50832 10.002 6.25V10Z" stroke="black" stroke-width="1.5"/>
</svg>
