<svg class="small-icon-size" width="30" height="30" viewBox="0 0 30 30" fill="currentColor" xmlns="http://www.w3.org/2000/svg">
<path d="M6.96875 13.7059L8.8 12.0059L10.8375 14.0121L16.875 8.44336L23.0312 14.3371V4.50586H6.96875V13.7059ZM12.3125 6.20586C12.6726 6.19983 13.0264 6.30046 13.3294 6.49507C13.6323 6.68969 13.871 6.9696 14.0152 7.29956C14.1595 7.62951 14.2029 7.99477 14.14 8.34935C14.0771 8.70393 13.9107 9.03197 13.6618 9.29218C13.4128 9.5524 13.0925 9.73315 12.741 9.81168C12.3896 9.89021 12.0228 9.86301 11.6868 9.73351C11.3507 9.60401 11.0605 9.37799 10.8527 9.08391C10.6449 8.78983 10.5287 8.44083 10.5188 8.08086V7.99961C10.5187 7.52214 10.7071 7.06394 11.043 6.72456C11.3788 6.38519 11.8351 6.19205 12.3125 6.18711V6.20586Z" stroke="currentColor" stroke-width="0.5" stroke-linecap="round" stroke-linejoin="round"/>
<path d="M25 14.925C25 15.2565 24.8683 15.5745 24.6339 15.8089C24.3995 16.0433 24.0815 16.175 23.75 16.175H6.25C5.91848 16.175 5.60054 16.0433 5.36612 15.8089C5.1317 15.5745 5 15.2565 5 14.925M9.26875 19.3813H13.2875M13.2875 21.9625H9.26875M9.26875 24.375H13.3375M17.7813 20.0563L21.3625 23.6375M17.7688 23.6625L21.35 20.0813M23.75 2.5H6.25C5.91848 2.5 5.60054 2.6317 5.36612 2.86612C5.1317 3.10054 5 3.41848 5 3.75V26.25C5 26.5815 5.1317 26.8995 5.36612 27.1339C5.60054 27.3683 5.91848 27.5 6.25 27.5H23.75C24.0815 27.5 24.3995 27.3683 24.6339 27.1339C24.8683 26.8995 25 26.5815 25 26.25V3.75C25 3.41848 24.8683 3.10054 24.6339 2.86612C24.3995 2.6317 24.0815 2.5 23.75 2.5ZM19.55 25.7063C19.0465 25.7129 18.5467 25.6195 18.0795 25.4316C17.6123 25.2437 17.1871 24.9649 16.8284 24.6115C16.4697 24.258 16.1848 23.8369 15.99 23.3726C15.7952 22.9082 15.6945 22.4098 15.6938 21.9062C15.6826 21.1413 15.8992 20.3902 16.3161 19.7487C16.733 19.1072 17.3313 18.6042 18.0349 18.3037C18.7385 18.0032 19.5155 17.9187 20.2672 18.0611C21.019 18.2035 21.7113 18.5663 22.2563 19.1033C22.8012 19.6403 23.1741 20.3272 23.3275 21.0768C23.4809 21.8263 23.4079 22.6045 23.1178 23.3124C22.8276 24.0204 22.3335 24.626 21.6981 25.0522C21.0628 25.4785 20.3151 25.7062 19.55 25.7063Z" stroke="currentColor" stroke-linecap="round" stroke-linejoin="round"/>
<path d="M7.4375 24.8434C7.31318 24.8434 7.19395 24.794 7.10604 24.7061C7.01814 24.6182 6.96875 24.499 6.96875 24.3747C6.96875 24.2503 7.01814 24.1311 7.10604 24.0432C7.19395 23.9553 7.31318 23.9059 7.4375 23.9059C7.56182 23.9059 7.68105 23.9553 7.76896 24.0432C7.85686 24.1311 7.90625 24.2503 7.90625 24.3747C7.90625 24.499 7.85686 24.6182 7.76896 24.7061C7.68105 24.794 7.56182 24.8434 7.4375 24.8434ZM7.4375 22.4309C7.31318 22.4309 7.19395 22.3815 7.10604 22.2936C7.01814 22.2057 6.96875 22.0865 6.96875 21.9622C6.96875 21.8378 7.01814 21.7186 7.10604 21.6307C7.19395 21.5428 7.31318 21.4934 7.4375 21.4934C7.56074 21.4934 7.67904 21.5419 7.76677 21.6285C7.8545 21.715 7.90461 21.8327 7.90625 21.9559C7.90468 22.0803 7.85498 22.1993 7.76758 22.2878C7.68018 22.3764 7.56188 22.4277 7.4375 22.4309ZM7.4375 19.8434C7.31318 19.8434 7.19395 19.794 7.10604 19.7061C7.01814 19.6182 6.96875 19.499 6.96875 19.3747C6.96874 19.3134 6.98091 19.2527 7.00454 19.1962C7.02818 19.1397 7.0628 19.0884 7.10642 19.0454C7.15003 19.0024 7.20175 18.9684 7.25859 18.9455C7.31543 18.9227 7.37624 18.9113 7.4375 18.9122C7.56182 18.9122 7.68105 18.9615 7.76896 19.0494C7.85686 19.1374 7.90625 19.2566 7.90625 19.3809C7.90152 19.5031 7.85043 19.619 7.76336 19.7049C7.67629 19.7908 7.55978 19.8403 7.4375 19.8434Z" fill="currentColor"/>
</svg>
