<svg class="small-icon-size" width="30" height="30" viewBox="0 0 30 30" fill="none" xmlns="http://www.w3.org/2000/svg">
<path d="M3.58789 26.4013L6.24164 23.75M6.24164 23.75L8.89289 21.0987M6.24164 23.75L3.58789 21.0987M6.24164 23.75L8.89164 26.4013M8.75039 2.5H20.6254L26.2504 8.125V23.75" stroke="black" stroke-width="1.5" stroke-linecap="round" stroke-linejoin="round"/>
<path d="M13.75 27.5H20.625C21.1223 27.5 21.5992 27.3025 21.9508 26.9508C22.3025 26.5992 22.5 26.1223 22.5 25.625V10.9363C22.5001 10.8376 22.4807 10.7399 22.4429 10.6487C22.4052 10.5575 22.3498 10.4747 22.28 10.405L18.345 6.47C18.2751 6.40004 18.1921 6.34459 18.1007 6.30683C18.0093 6.26907 17.9114 6.24976 17.8125 6.25H5.625C5.12772 6.25 4.65081 6.44755 4.29917 6.79918C3.94754 7.15081 3.75 7.62772 3.75 8.125V16.25" stroke="black" stroke-width="1.5" stroke-linecap="round" stroke-linejoin="round"/>
<path d="M17.5 6.25V10.5C17.5 10.6989 17.579 10.8897 17.7197 11.0303C17.8603 11.171 18.0511 11.25 18.25 11.25H22.5" stroke="black" stroke-width="1.5" stroke-linecap="round" stroke-linejoin="round"/>
</svg>
