<svg width="32" height="34" viewBox="0 0 32 34" fill="none" xmlns="http://www.w3.org/2000/svg">
<path d="M4.50078 0.199219C3.38687 0.199219 2.31859 0.641717 1.53093 1.42937C0.74328 2.21702 0.300781 3.28531 0.300781 4.39922V8.59922C0.300781 9.71313 0.74328 10.7814 1.53093 11.5691C2.31859 12.3567 3.38687 12.7992 4.50078 12.7992H21.3008C22.4147 12.7992 23.483 12.3567 24.2706 11.5691C25.0583 10.7814 25.5008 9.71313 25.5008 8.59922V4.39922C25.5008 3.28531 25.0583 2.21702 24.2706 1.42937C23.483 0.641717 22.4147 0.199219 21.3008 0.199219H4.50078ZM2.40078 4.39922C2.40078 3.84226 2.62203 3.30812 3.01586 2.91429C3.40968 2.52047 3.94383 2.29922 4.50078 2.29922H21.3008C21.8577 2.29922 22.3919 2.52047 22.7857 2.91429C23.1795 3.30812 23.4008 3.84226 23.4008 4.39922V8.59922C23.4008 9.15617 23.1795 9.69032 22.7857 10.0841C22.3919 10.478 21.8577 10.6992 21.3008 10.6992H4.50078C3.94383 10.6992 3.40968 10.478 3.01586 10.0841C2.62203 9.69032 2.40078 9.15617 2.40078 8.59922V4.39922ZM8.70078 24.3492C8.4223 24.3492 8.15523 24.4598 7.95832 24.6568C7.76141 24.8537 7.65078 25.1207 7.65078 25.3992C7.65078 25.6777 7.76141 25.9448 7.95832 26.1417C8.15523 26.3386 8.4223 26.4492 8.70078 26.4492H17.1008C17.3793 26.4492 17.6463 26.3386 17.8432 26.1417C18.0402 25.9448 18.1508 25.6777 18.1508 25.3992C18.1508 25.1207 18.0402 24.8537 17.8432 24.6568C17.6463 24.4598 17.3793 24.3492 17.1008 24.3492H8.70078ZM18.9467 16.9992H4.50078C3.38687 16.9992 2.31859 17.4417 1.53093 18.2294C0.74328 19.017 0.300781 20.0853 0.300781 21.1992V29.5992C0.300781 30.7131 0.74328 31.7814 1.53093 32.5691C2.31859 33.3567 3.38687 33.7992 4.50078 33.7992H21.3008C22.4147 33.7992 23.483 33.3567 24.2706 32.5691C25.0583 31.7814 25.5008 30.7131 25.5008 29.5992V27.3207C24.8214 27.5609 24.0802 27.5609 23.4008 27.3207V29.5992C23.4008 30.1562 23.1795 30.6903 22.7857 31.0841C22.3919 31.478 21.8577 31.6992 21.3008 31.6992H4.50078C3.94383 31.6992 3.40968 31.478 3.01586 31.0841C2.62203 30.6903 2.40078 30.1562 2.40078 29.5992V21.1992C2.40078 20.6423 2.62203 20.1081 3.01586 19.7143C3.40968 19.3205 3.94383 19.0992 4.50078 19.0992H17.2793C17.4363 18.6567 17.6903 18.2549 18.0227 17.9232L18.9467 16.9992ZM31.8008 11.7492C31.8008 11.4707 31.6902 11.2037 31.4932 11.0068C31.2963 10.8098 31.0293 10.6992 30.7508 10.6992C30.4723 10.6992 30.2052 10.8098 30.0083 11.0068C29.8114 11.2037 29.7008 11.4707 29.7008 11.7492V15.9492C29.7008 16.7847 29.3689 17.5859 28.7782 18.1766C28.1874 18.7673 27.3862 19.0992 26.5508 19.0992H22.7855L25.1942 16.6926C25.3913 16.4955 25.5021 16.228 25.5021 15.9492C25.5021 15.6704 25.3913 15.403 25.1942 15.2058C24.997 15.0087 24.7296 14.8979 24.4508 14.8979C24.172 14.8979 23.9045 15.0087 23.7074 15.2058L19.5074 19.4058C19.4096 19.5034 19.332 19.6192 19.2791 19.7468C19.2262 19.8744 19.1989 20.0111 19.1989 20.1492C19.1989 20.2873 19.2262 20.4241 19.2791 20.5516C19.332 20.6792 19.4096 20.7951 19.5074 20.8926L23.7074 25.0926C23.9045 25.2898 24.172 25.4005 24.4508 25.4005C24.7296 25.4005 24.997 25.2898 25.1942 25.0926C25.3913 24.8955 25.5021 24.628 25.5021 24.3492C25.5021 24.0704 25.3913 23.803 25.1942 23.6058L22.7855 21.1992H26.5508C27.2402 21.1992 27.9229 21.0634 28.5599 20.7996C29.1968 20.5357 29.7756 20.149 30.2631 19.6615C30.7506 19.174 31.1373 18.5953 31.4011 17.9583C31.665 17.3213 31.8008 16.6387 31.8008 15.9492V11.7492Z" fill="black" fill-opacity="0.6"/>
</svg>
