<svg width="30" height="30" viewBox="0 0 30 30" fill="none" xmlns="http://www.w3.org/2000/svg">
<path d="M20.625 24.375H15V18.75H18.75V16.875H15V15H20.625V20.625H16.875V22.5H20.625V24.375Z" fill="black"/>
<path d="M24.0938 8.71918L17.5313 2.15668C17.4491 2.06468 17.3477 1.99181 17.2343 1.94322C17.121 1.89463 16.9983 1.87149 16.875 1.87543H7.5C7.00318 1.87692 6.52712 2.07494 6.17581 2.42625C5.8245 2.77755 5.62648 3.25361 5.625 3.75043V26.2504C5.62648 26.7473 5.8245 27.2233 6.17581 27.5746C6.52712 27.9259 7.00318 28.1239 7.5 28.1254H22.5C22.9968 28.1239 23.4729 27.9259 23.8242 27.5746C24.1755 27.2233 24.3735 26.7473 24.375 26.2504V9.37543C24.3789 9.25214 24.3558 9.12948 24.3072 9.01609C24.2586 8.90271 24.1858 8.80136 24.0938 8.71918ZM16.875 4.12543L22.125 9.37543H16.875V4.12543ZM22.5 26.2504H7.5V3.75043H15V9.37543C15.0015 9.87226 15.1995 10.3483 15.5508 10.6996C15.9021 11.0509 16.3782 11.2489 16.875 11.2504H22.5V26.2504Z" fill="black"/>
</svg>
