<svg class="small-icon-size" width="30" height="30" viewBox="0 0 30 30" fill="currentColor" xmlns="http://www.w3.org/2000/svg">
<g clip-path="url(#clip0_523_292)">
<path d="M24.9993 10H21.666V11.6667H24.9993V13.3333H26.666V11.6667C26.666 11.2246 26.4904 10.8007 26.1779 10.4882C25.8653 10.1756 25.4414 10 24.9993 10Z" fill="currentColor"/>
<path d="M25 15H26.6667V20H25V15Z" fill="currentColor"/>
<path d="M25.0007 24.9993H23.334V26.666H25.0007C25.4427 26.666 25.8666 26.4904 26.1792 26.1779C26.4917 25.8653 26.6673 25.4414 26.6673 24.9993V21.666H25.0007V24.9993Z" fill="currentColor"/>
<path d="M20.0007 18.334V5.00065C20.0007 4.55862 19.8251 4.1347 19.5125 3.82214C19.1999 3.50958 18.776 3.33398 18.334 3.33398H5.00065C4.55862 3.33398 4.1347 3.50958 3.82214 3.82214C3.50958 4.1347 3.33398 4.55862 3.33398 5.00065V18.334C3.33398 18.776 3.50958 19.1999 3.82214 19.5125C4.1347 19.8251 4.55862 20.0007 5.00065 20.0007H18.334C18.776 20.0007 19.1999 19.8251 19.5125 19.5125C19.8251 19.1999 20.0007 18.776 20.0007 18.334ZM5.00065 5.00065H18.334V18.334H5.00065V5.00065Z" fill="currentColor"/>
<path d="M16.666 25H21.666V26.6667H16.666V25Z" fill="currentColor"/>
<path d="M11.6667 21.666H10V24.9993C10 25.4414 10.1756 25.8653 10.4882 26.1779C10.8007 26.4904 11.2246 26.666 11.6667 26.666H15V24.9993H11.6667V21.666Z" fill="currentColor"/>
</g>
<defs>
<clipPath id="clip0_523_292">
<rect width="30" height="30" fill="currentColor"/>
</clipPath>
</defs>
</svg>
