<svg width="30" height="30" viewBox="0 0 30 30" fill="none" xmlns="http://www.w3.org/2000/svg">
<path d="M22.5939 1.94336L27.8102 7.38086V28.0584H8.32422V28.1259H27.8767V7.4493L22.5939 1.94336Z" fill="#909090"/>
<path d="M22.5294 1.875H8.25781V28.0575H27.8103V7.38094L22.5294 1.875Z" fill="#EE361C"/>
<path d="M8.11367 3.28125H2.12305V9.68156H20.9668V3.28125H8.11367Z" fill="#909090"/>
<path d="M21.0683 9.57297H2.24609V3.16797H21.0683V9.57297Z" fill="#EE361C"/>
<path d="M8.48703 4.2505H7.26172V8.7505H8.22547V7.23269L8.43828 7.24488C8.64514 7.24203 8.85009 7.20497 9.04484 7.13519C9.21605 7.07706 9.3734 6.98418 9.50703 6.86238C9.64406 6.74748 9.75172 6.60157 9.82109 6.43675C9.91601 6.16367 9.94962 5.87304 9.91953 5.5855C9.91419 5.38005 9.87816 5.17656 9.81266 4.98175C9.75362 4.84095 9.66585 4.71402 9.55494 4.60909C9.44404 4.50416 9.31245 4.42353 9.16859 4.37238C9.04458 4.32645 8.91605 4.29377 8.78516 4.27488C8.68628 4.25878 8.58627 4.25063 8.48609 4.2505M8.30891 6.40113H8.22547V5.01363H8.40641C8.48626 5.00787 8.56639 5.02013 8.64087 5.0495C8.71536 5.07887 8.78229 5.1246 8.83672 5.18332C8.94952 5.33427 9.00978 5.51801 9.00828 5.70644C9.00828 5.93707 9.00828 6.14613 8.80016 6.29332C8.65026 6.37588 8.47956 6.41396 8.30891 6.40113ZM11.7505 4.23832C11.6464 4.23832 11.5452 4.24582 11.4739 4.24863L11.2508 4.25425H10.5195V8.75425H11.3802C11.709 8.76271 12.0364 8.70698 12.3439 8.59019C12.5915 8.49241 12.8107 8.33415 12.9814 8.12988C13.1487 7.92471 13.2682 7.68483 13.3311 7.42769C13.405 7.137 13.441 6.83794 13.438 6.538C13.4563 6.18377 13.4289 5.82866 13.3564 5.48144C13.287 5.22615 13.1585 4.99075 12.9814 4.79425C12.8425 4.63536 12.6716 4.50757 12.4798 4.41925C12.3156 4.34313 12.1428 4.2871 11.9652 4.25238C11.8945 4.2408 11.823 4.23547 11.7514 4.23644M11.5808 7.92738H11.487V5.05488H11.4992C11.6925 5.03253 11.8881 5.06741 12.0617 5.15519C12.1889 5.25675 12.2925 5.38469 12.3655 5.53019C12.4442 5.68332 12.4895 5.85138 12.4986 6.02332C12.507 6.22957 12.4986 6.39832 12.4986 6.538C12.5021 6.69891 12.4917 6.85981 12.4677 7.01894C12.4382 7.18213 12.3848 7.34008 12.3092 7.48769C12.2239 7.62536 12.1073 7.74098 11.9689 7.82519C11.8533 7.90019 11.7163 7.93511 11.5789 7.92457M16.3414 4.25425H14.0633V8.75425H15.027V6.96925H16.2458V6.133H15.027V5.0905H16.3395V4.25425" fill="#333333"/>
<path d="M20.4196 18.9892C20.4196 18.9892 23.4084 18.4473 23.4084 19.4682C23.4084 20.4892 21.5568 20.0738 20.4196 18.9892ZM18.21 19.067C17.735 19.1716 17.2722 19.3253 16.829 19.5254L17.204 18.6817C17.579 17.8379 17.9681 16.6876 17.9681 16.6876C18.4144 17.4415 18.9352 18.1487 19.5225 18.7989C19.0803 18.8647 18.6422 18.9549 18.21 19.0689V19.067ZM17.0268 12.9732C17.0268 12.0835 17.3146 11.8407 17.5387 11.8407C17.7628 11.8407 18.015 11.9485 18.0234 12.721C17.9503 13.4978 17.7876 14.2635 17.5387 15.0029C17.1965 14.3825 17.0199 13.6845 17.0259 12.976L17.0268 12.9732ZM12.6684 22.832C11.7515 22.2835 14.5912 20.5951 15.1059 20.5407C15.1031 20.5417 13.6284 23.4057 12.6684 22.832ZM24.2812 19.5892C24.2718 19.4954 24.1875 18.4576 22.3406 18.5017C21.5707 18.4882 20.8012 18.5424 20.0409 18.6639C19.3039 17.922 18.6695 17.0849 18.1546 16.1748C18.4788 15.2366 18.6753 14.2591 18.7387 13.2685C18.7115 12.1435 18.4425 11.4985 17.58 11.5079C16.7175 11.5173 16.5918 12.272 16.7053 13.3951C16.8163 14.1499 17.0259 14.8868 17.3287 15.587C17.3287 15.587 16.9303 16.8273 16.4034 18.061C15.8765 19.2948 15.5165 19.9417 15.5165 19.9417C14.6002 20.2396 13.7376 20.6827 12.9618 21.2542C12.1893 21.9732 11.8753 22.5254 12.2821 23.0776C12.6328 23.5539 13.86 23.6617 14.9568 22.2245C15.5386 21.4814 16.071 20.701 16.5506 19.8882C16.5506 19.8882 18.2231 19.4298 18.7434 19.3042C19.2637 19.1785 19.8928 19.0792 19.8928 19.0792C19.8928 19.0792 21.42 20.6157 22.8928 20.5614C24.3656 20.507 24.2943 19.681 24.285 19.591" fill="#FBFBFB"/>
<path d="M22.457 1.94727V7.4532H27.738L22.457 1.94727Z" fill="#909090"/>
<path d="M22.5293 1.875V7.38094H27.8102L22.5293 1.875Z" fill="#EE361C"/>
<path d="M8.41477 4.17824H7.18945V8.67824H8.15695V7.16136L8.3707 7.17355C8.57756 7.1707 8.78251 7.13364 8.97727 7.06386C9.14847 7.00573 9.30583 6.91285 9.43945 6.79105C9.57546 6.67584 9.68214 6.52995 9.7507 6.36543C9.84562 6.09235 9.87923 5.80171 9.84914 5.51418C9.8438 5.30872 9.80777 5.10523 9.74227 4.91043C9.68323 4.76962 9.59546 4.64269 9.48455 4.53776C9.37365 4.43283 9.24206 4.35221 9.0982 4.30105C8.97362 4.25467 8.84445 4.22167 8.71289 4.20261C8.61401 4.18651 8.51401 4.17836 8.41383 4.17824M8.23664 6.32886H8.1532V4.94136H8.33508C8.41493 4.9356 8.49506 4.94786 8.56955 4.97723C8.64403 5.00661 8.71096 5.05234 8.76539 5.11105C8.87819 5.262 8.93845 5.44574 8.93695 5.63418C8.93695 5.8648 8.93695 6.07386 8.72883 6.22105C8.57893 6.30362 8.40823 6.34076 8.23758 6.32793M11.6782 4.16605C11.5741 4.16605 11.4729 4.17355 11.4016 4.17636L11.1813 4.18199H10.4501V8.68199H11.3107C11.6396 8.69045 11.9669 8.63472 12.2745 8.51793C12.5221 8.42014 12.7412 8.26189 12.912 8.05761C13.0792 7.85244 13.1987 7.61257 13.2616 7.35543C13.3356 7.06473 13.3715 6.76567 13.3685 6.46574C13.3869 6.11151 13.3595 5.75639 13.287 5.40918C13.2175 5.15388 13.0891 4.91849 12.912 4.72199C12.773 4.56309 12.6021 4.43531 12.4104 4.34699C12.2462 4.27086 12.0734 4.21483 11.8957 4.18011C11.8251 4.16853 11.7535 4.1632 11.682 4.16418M11.5113 7.85511H11.4176V4.98261H11.4298C11.623 4.96026 11.8186 4.99514 11.9923 5.08293C12.1194 5.18448 12.2231 5.31243 12.296 5.45793C12.3747 5.61105 12.4201 5.77912 12.4291 5.95105C12.4376 6.1573 12.4291 6.32605 12.4291 6.46574C12.4326 6.62664 12.4223 6.78754 12.3982 6.94668C12.3687 7.10986 12.3153 7.26781 12.2398 7.41543C12.1544 7.55309 12.0378 7.66871 11.8995 7.75293C11.7839 7.82793 11.6468 7.86285 11.5095 7.8523M16.2691 4.18199H13.991V8.68199H14.9548V6.89699H16.1735V6.06074H14.9548V5.01824H16.2673V4.18199" fill="#FBFBFB"/>
</svg>
