<svg class="small-icon-size" width="30" height="30" viewBox="0 0 30 30" fill="currentColor" xmlns="http://www.w3.org/2000/svg">
<path d="M10.5 3C9.70435 3 8.94129 3.31607 8.37868 3.87868C7.81607 4.44129 7.5 5.20435 7.5 6H6C5.20435 6 4.44129 6.31607 3.87868 6.87868C3.31607 7.44129 3 8.20435 3 9V21C3 21.7956 3.31607 22.5587 3.87868 23.1213C4.44129 23.6839 5.20435 24 6 24H7.5C7.5 24.7956 7.81607 25.5587 8.37868 26.1213C8.94129 26.6839 9.70435 27 10.5 27H19.5C20.2956 27 21.0587 26.6839 21.6213 26.1213C22.1839 25.5587 22.5 24.7956 22.5 24H24C24.7956 24 25.5587 23.6839 26.1213 23.1213C26.6839 22.5587 27 21.7956 27 21V9C27 8.20435 26.6839 7.44129 26.1213 6.87868C25.5587 6.31607 24.7956 6 24 6H22.5C22.5 5.20435 22.1839 4.44129 21.6213 3.87868C21.0587 3.31607 20.2956 3 19.5 3H10.5ZM22.5 7.5H24C24.3978 7.5 24.7794 7.65804 25.0607 7.93934C25.342 8.22064 25.5 8.60218 25.5 9V21C25.5 21.3978 25.342 21.7794 25.0607 22.0607C24.7794 22.342 24.3978 22.5 24 22.5H22.5V7.5ZM7.5 22.5H6C5.60218 22.5 5.22064 22.342 4.93934 22.0607C4.65804 21.7794 4.5 21.3978 4.5 21V9C4.5 8.60218 4.65804 8.22064 4.93934 7.93934C5.22064 7.65804 5.60218 7.5 6 7.5H7.5V22.5ZM9 6C9 5.60218 9.15804 5.22064 9.43934 4.93934C9.72064 4.65804 10.1022 4.5 10.5 4.5H19.5C19.8978 4.5 20.2794 4.65804 20.5607 4.93934C20.842 5.22064 21 5.60218 21 6V24C21 24.3978 20.842 24.7794 20.5607 25.0607C20.2794 25.342 19.8978 25.5 19.5 25.5H10.5C10.1022 25.5 9.72064 25.342 9.43934 25.0607C9.15804 24.7794 9 24.3978 9 24V6Z" fill="currentColor"/>
</svg>
