<svg class="small-icon-size" width="30" height="30" viewBox="0 0 30 30" fill="currentColor" xmlns="http://www.w3.org/2000/svg">
<path fill-rule="evenodd" clip-rule="evenodd" d="M6.72335 2.97335C7.42661 2.27009 8.38044 1.875 9.375 1.875H20.625C21.6196 1.875 22.5734 2.27009 23.2766 2.97335C23.9799 3.67661 24.375 4.63044 24.375 5.625V11.6381C23.77 11.4669 23.145 11.3512 22.5 11.2912V5.625C22.5 5.12772 22.3025 4.65081 21.9508 4.29917C21.5992 3.94754 21.1223 3.75 20.625 3.75H9.375C8.87772 3.75 8.40081 3.94754 8.04918 4.29917C7.69754 4.65081 7.5 5.12772 7.5 5.625V24.375C7.5 24.8723 7.69754 25.3492 8.04918 25.7008C8.40081 26.0525 8.87772 26.25 9.375 26.25H12.375C12.7162 26.9179 13.1293 27.5467 13.6069 28.125H9.375C8.38044 28.125 7.42661 27.7299 6.72335 27.0266C6.02009 26.3234 5.625 25.3696 5.625 24.375V5.625C5.625 4.63044 6.02009 3.67661 6.72335 2.97335ZM18.5602 9.00531C18.4183 9.19173 18.2118 9.31826 17.9813 9.36L17.8125 9.375H12.1875C11.9532 9.37543 11.7273 9.28813 11.5542 9.1303C11.381 8.97246 11.2733 8.75553 11.2521 8.52221C11.2309 8.28889 11.2979 8.05611 11.4398 7.86969C11.5817 7.68327 11.7882 7.55674 12.0187 7.515L12.1875 7.5H17.8125C18.0468 7.49957 18.2727 7.58687 18.4458 7.7447C18.619 7.90254 18.7267 8.11947 18.7479 8.35279C18.7691 8.58611 18.7021 8.81889 18.5602 9.00531ZM27.5287 27.5287C29.1111 25.9464 30 23.8003 30 21.5625C30 19.3247 29.1111 17.1786 27.5287 15.5963C25.9464 14.0139 23.8003 13.125 21.5625 13.125C19.3247 13.125 17.1786 14.0139 15.5963 15.5963C14.0139 17.1786 13.125 19.3247 13.125 21.5625C13.125 23.8003 14.0139 25.9464 15.5963 27.5287C17.1786 29.1111 19.3247 30 21.5625 30C23.8003 30 25.9464 29.1111 27.5287 27.5287ZM17 21C16.4477 21 16 21.4477 16 22C16 22.5523 16.4477 23 17 23H27V21H17Z" fill="currentColor"/>
</svg>
