<svg class="small-icon-size" width="30" height="30" viewBox="0 0 30 30" fill="currentColor" xmlns="http://www.w3.org/2000/svg">
<path d="M17.4 10C16.8 6.45 13.7125 3.75 10 3.75C5.8625 3.75 2.5 7.1125 2.5 11.25C2.5 14.9625 5.2 18.05 8.75 18.65V26.25H11.25V18.6375C11.25 17.4125 10.3625 16.3875 9.1625 16.175C8.25793 16.022 7.41291 15.623 6.72001 15.0217C6.02711 14.4204 5.51305 13.64 5.23414 12.766C4.95522 11.892 4.92221 10.9581 5.13872 10.0666C5.35523 9.17508 5.81291 8.36034 6.46163 7.71163C7.11034 7.06291 7.92508 6.60523 8.81659 6.38872C9.7081 6.17221 10.642 6.20522 11.516 6.48414C12.39 6.76305 13.1704 7.27711 13.7717 7.97001C14.373 8.66291 14.772 9.50793 14.925 10.4125C15.1375 11.6125 16.1625 12.5 17.3875 12.5H22.7125L20.725 14.4875L22.5 16.25L27.5 11.25L22.5 6.25L20.7375 8.0125L22.7125 10H17.4Z" fill="currentColor"/>
</svg>
