<svg class="small-icon-size"  width="30"
                    height="30"
                    viewBox="0 0 30 30"
                    fill="currentColor" xmlns="http://www.w3.org/2000/svg">
<path d="M10.1875 0.5H15.185C15.4225 0.500073 15.6512 0.590306 15.8247 0.752466C15.9983 0.914626 16.1038 1.13662 16.12 1.3736C16.1362 1.61058 16.0619 1.84486 15.912 2.02912C15.7621 2.21338 15.5478 2.33387 15.3125 2.36625L15.185 2.375H13.625V23.625H15.1812C15.4078 23.625 15.6267 23.7071 15.7974 23.856C15.9681 24.0049 16.0792 24.2106 16.11 24.435L16.1187 24.5625C16.1187 24.789 16.0367 25.0079 15.8878 25.1787C15.7389 25.3494 15.5332 25.4604 15.3088 25.4912L15.1812 25.5H10.1875C9.94997 25.4999 9.72132 25.4097 9.54776 25.2475C9.3742 25.0854 9.26866 24.8634 9.25247 24.6264C9.23628 24.3894 9.31064 24.1551 9.46054 23.9709C9.61044 23.7866 9.82469 23.6661 10.06 23.6338L10.1875 23.625H11.75V2.375H10.1875C9.96095 2.37499 9.74207 2.29295 9.57134 2.14404C9.4006 1.99514 9.28956 1.78944 9.25875 1.565L9.25 1.4375C9.25001 1.21095 9.33205 0.992072 9.48096 0.821337C9.62986 0.650601 9.83556 0.53956 10.06 0.50875L10.1875 0.5ZM20.8075 4.24625C21.8846 4.24724 22.9174 4.67557 23.679 5.43723C24.4407 6.19888 24.869 7.23161 24.87 8.30875L24.875 17.6888C24.8754 18.7262 24.4789 19.7246 23.7668 20.479C23.0546 21.2335 22.0808 21.6869 21.045 21.7463L20.8125 21.7525H14.8813V19.8775H20.885C21.4527 19.8587 21.9909 19.6198 22.3856 19.2113C22.7803 18.8028 23.0006 18.2568 23 17.6888L22.9963 8.3075C22.9953 7.72721 22.7641 7.17101 22.3536 6.76092C21.943 6.35082 21.3865 6.12033 20.8063 6.12H14.8813V4.245L20.8075 4.24625ZM10.5 4.24625V6.12125H4.5625C3.98234 6.12125 3.42594 6.35172 3.0157 6.76195C2.60547 7.17219 2.375 7.72859 2.375 8.30875V17.6888C2.375 18.8975 3.355 19.8762 4.5625 19.8762H10.4937V21.7512H4.5625C3.48506 21.7512 2.45175 21.3232 1.68988 20.5614C0.928012 19.7995 0.5 18.7662 0.5 17.6888V8.30875C0.5 7.23131 0.928012 6.198 1.68988 5.43613C2.45175 4.67426 3.48506 4.24625 4.5625 4.24625H10.5Z" fill="currentColor"/>
</svg>
