<svg width="30" height="30" viewBox="0 0 30 30" fill="none" xmlns="http://www.w3.org/2000/svg">
<path d="M16.32 16.315C18.145 15.0942 19.5887 13.7437 20.6512 12.2638C21.7138 10.7837 22.245 9.32083 22.245 7.875C22.245 7 22.0675 6.30208 21.7125 5.78125C21.3575 5.26042 20.8883 5 20.305 5C19.0858 5 18.0692 5.83625 17.255 7.50875C16.4408 9.18125 16.0337 11.2513 16.0337 13.7188C16.0337 14.2354 16.0588 14.7079 16.1088 15.1363C16.1596 15.5646 16.23 15.9575 16.32 16.315ZM4.975 25V23.1737H6.80125V25H4.975ZM9.51875 25V23.1737H11.345V25H9.51875ZM14.0612 25V23.1737H15.8888V25H14.0612ZM18.605 25V23.1737H20.4312V25H18.605ZM23.1475 25V23.1737H24.975V25H23.1475ZM4.6125 20.36L3.75 19.5L5.75 17.5L3.75 15.5L4.61 14.64L6.61 16.64L8.61 14.64L9.47125 15.5L7.47125 17.5L9.47125 19.5L8.61125 20.3612L6.61125 18.3612L4.6125 20.36ZM18.52 20C17.895 20 17.3417 19.8521 16.86 19.5563C16.3783 19.2604 15.9825 18.8179 15.6725 18.2288C15.1842 18.5204 14.6717 18.7888 14.135 19.0338C13.5983 19.2788 13.0467 19.5162 12.48 19.7463L12.0387 18.5787C12.5896 18.3546 13.1308 18.115 13.6625 17.86C14.1942 17.605 14.7017 17.3333 15.185 17.045C15.0492 16.5867 14.9471 16.075 14.8787 15.51C14.8104 14.9433 14.7762 14.3321 14.7762 13.6763C14.7762 10.7554 15.2942 8.37083 16.33 6.5225C17.3658 4.67417 18.6908 3.75 20.305 3.75C21.2608 3.75 22.0304 4.12708 22.6138 4.88125C23.1971 5.63542 23.4888 6.64292 23.4888 7.90375C23.4888 9.61542 22.8846 11.3183 21.6763 13.0125C20.4679 14.7067 18.83 16.2192 16.7625 17.55C16.9725 17.9525 17.2275 18.2546 17.5275 18.4563C17.8275 18.6562 18.165 18.7563 18.54 18.7563C19.2108 18.7563 19.9217 18.4371 20.6725 17.7987C21.4233 17.1604 22.0983 16.3021 22.6975 15.2238L23.7762 15.7337C23.6621 16.3921 23.6196 16.9713 23.6488 17.4713C23.6779 17.9713 23.8167 18.4004 24.065 18.7587C24.3375 18.6229 24.5983 18.4662 24.8475 18.2887C25.0967 18.1104 25.3992 17.8096 25.755 17.3863L26.7388 18.1737C26.1971 18.7629 25.6962 19.2146 25.2362 19.5288C24.7762 19.8429 24.34 20 23.9275 20C23.5542 20 23.2317 19.7896 22.96 19.3687C22.6883 18.9479 22.5021 18.4188 22.4012 17.7812C21.8979 18.4621 21.2883 19.0021 20.5725 19.4012C19.8567 19.8004 19.1725 20 18.52 20Z" fill="#333333"/>
</svg>
