<svg class="small-icon-size" width="30" height="30" viewBox="0 0 30 30" fill="currentColor" xmlns="http://www.w3.org/2000/svg">
<g clip-path="url(#clip0_459_626)">
<mask id="mask0_459_626" style="mask-type:luminance" maskUnits="userSpaceOnUse" x="0" y="0" width="30" height="30">
<path d="M0 0H30V30H0V0Z" fill="white"/>
</mask>
<g mask="url(#mask0_459_626)">
<path d="M25 12.5C25 7.78625 25 5.42875 23.535 3.965C22.2062 2.63625 20.1425 2.5125 16.25 2.5M25 17.5C25 22.2137 25 24.5712 23.535 26.035C22.07 27.4987 19.7137 27.5 15 27.5C10.2863 27.5 7.92875 27.5 6.465 26.035C5.00125 24.57 5 22.215 5 17.5V13.7513" stroke="currentColor" stroke-width="1.5" stroke-linecap="round"/>
<path d="M3.41288 6L2.72038 6.6325C2.80823 6.72877 2.91518 6.80566 3.03442 6.85827C3.15366 6.91089 3.28255 6.93806 3.41288 6.93806C3.5432 6.93806 3.6721 6.91089 3.79134 6.85827C3.91057 6.80566 4.01753 6.72877 4.10538 6.6325L3.41288 6ZM5.01788 5.6325C5.18563 5.44884 5.27355 5.20606 5.26229 4.95757C5.25104 4.70909 5.14154 4.47525 4.95788 4.3075C4.77422 4.13975 4.53144 4.05183 4.28295 4.06308C4.03447 4.07434 3.80063 4.18384 3.63288 4.3675L5.01788 5.6325ZM3.19288 4.3675C3.02513 4.18384 2.79129 4.07434 2.5428 4.06308C2.29432 4.05183 2.05154 4.13975 1.86788 4.3075C1.68422 4.47525 1.57471 4.70909 1.56346 4.95757C1.55221 5.20606 1.64013 5.44884 1.80788 5.6325L3.19288 4.3675ZM12.8379 4L13.5304 3.3675C13.4425 3.27123 13.3356 3.19434 13.2163 3.14173C13.0971 3.08911 12.9682 3.06194 12.8379 3.06194C12.7076 3.06194 12.5787 3.08911 12.4594 3.14173C12.3402 3.19434 12.2332 3.27123 12.1454 3.3675L12.8379 4ZM11.2329 4.3675C11.0651 4.55116 10.9772 4.79394 10.9885 5.04243C10.9997 5.29091 11.1092 5.52475 11.2929 5.6925C11.4765 5.86025 11.7193 5.94817 11.9678 5.93692C12.2163 5.92566 12.4501 5.81616 12.6179 5.6325L11.2329 4.3675ZM13.0579 5.6325C13.1409 5.72344 13.2411 5.79713 13.3526 5.84936C13.4642 5.90159 13.5849 5.93134 13.708 5.93692C13.831 5.94249 13.9539 5.92377 14.0697 5.88183C14.1855 5.8399 14.2919 5.77556 14.3829 5.6925C14.4738 5.60944 14.5475 5.50928 14.5997 5.39774C14.652 5.2862 14.6817 5.16546 14.6873 5.04243C14.6929 4.91939 14.6741 4.79646 14.6322 4.68065C14.5903 4.56485 14.5259 4.45844 14.4429 4.3675L13.0579 5.6325ZM5.72038 7.8825C5.63797 7.79099 5.53835 7.7166 5.4272 7.66358C5.31604 7.61057 5.19554 7.57997 5.07256 7.57353C4.82419 7.56052 4.58083 7.6467 4.396 7.81313C4.21118 7.97955 4.10004 8.21258 4.08703 8.46094C4.07402 8.70931 4.1602 8.95268 4.32663 9.1375L5.72038 7.8825ZM10.6754 2.2875C10.833 2.47483 11.0576 2.59308 11.3012 2.61699C11.5449 2.64089 11.7882 2.56855 11.9792 2.41542C12.1702 2.2623 12.2937 2.04053 12.3234 1.79753C12.353 1.55453 12.2864 1.30957 12.1379 1.115L10.6754 2.2875ZM7.97538 -0.9375C4.85788 -0.9375 2.47538 1.80375 2.47538 5H4.35038C4.35038 2.675 6.05038 0.9375 7.97538 0.9375V-0.9375ZM2.47538 5L2.47663 6H4.35163L4.35038 5H2.47538ZM4.10538 6.6325L5.01788 5.6325L3.63288 4.3675L2.72038 5.3675L4.10538 6.6325ZM4.10538 5.3675L3.19288 4.3675L1.80788 5.6325L2.72038 6.6325L4.10538 5.3675ZM8.27538 10.9375C11.3929 10.9375 13.7754 8.19625 13.7754 5H11.9004C11.9004 7.325 10.2004 9.0625 8.27538 9.0625V10.9375ZM13.7754 5V4H11.9004V5H13.7754ZM12.1466 3.3675L11.2341 4.3675L12.6191 5.6325L13.5316 4.6325L12.1466 3.3675ZM12.1466 4.6325L13.0579 5.6325L14.4441 4.3675L13.5304 3.3675L12.1466 4.6325ZM4.32538 9.13625C5.31288 10.235 6.71038 10.9375 8.27288 10.9375V9.0625C7.29163 9.0625 6.38663 8.625 5.71913 7.8825L4.32538 9.13625ZM12.1379 1.115C11.1429 -0.125 9.65663 -0.9375 7.97538 -0.9375V0.9375C9.02913 0.9375 9.99788 1.4425 10.6754 2.2875L12.1379 1.115Z" fill="currentColor"/>
<path d="M18.75 23.75H11.25" stroke="currentColor" stroke-width="1.5" stroke-linecap="round"/>
</g>
</g>
<defs>
<clipPath id="clip0_459_626">
<rect width="30" height="30" fill="white"/>
</clipPath>
</defs>
</svg>
