<svg  class="small-icon-size" width="30" height="30" viewBox="0 0 30 30" fill="currentColor" xmlns="http://www.w3.org/2000/svg">
<path d="M13.75 13.75V8.75H16.25V13.75H13.75ZM16.25 1.25V6.25H13.75V1.25H16.25ZM13.75 21.25V16.25H16.25V21.25H13.75ZM11.25 25H7.5V5H11.25V2.5H7.5C6.83696 2.5 6.20107 2.76339 5.73223 3.23223C5.26339 3.70107 5 4.33696 5 5V25C5 26.3875 6.1125 27.5 7.5 27.5H11.25V25ZM18.75 3.75V10H22.5V25H18.75V27.5H22.5C23.8875 27.5 25 26.3875 25 25V10L18.75 3.75ZM16.25 23.75H13.75V28.75H16.25V23.75Z" fill="currentColor"/>
</svg>
