<svg class="small-icon-size" width="30" height="30" viewBox="0 0 30 30" fill="currentColor" xmlns="http://www.w3.org/2000/svg">
<path d="M10.625 8.75H18.125M14.375 17.5V9.375M12.5894 26.25H5C4.66848 26.25 4.35054 26.1183 4.11612 25.8839C3.8817 25.6495 3.75 25.3315 3.75 25V4.375C3.75 4.04348 3.8817 3.72554 4.11612 3.49112C4.35054 3.2567 4.66848 3.125 5 3.125H25C25.3315 3.125 25.6495 3.2567 25.8839 3.49112C26.1183 3.72554 26.25 4.04348 26.25 4.375V10.4481" stroke="currentColor" stroke-width="2" stroke-linecap="round" stroke-linejoin="round"/>
<path d="M16.875 23.75L23.4375 14.6875L26.25 16.875L19.375 26.25H16.875V23.75Z" fill="currentColor" stroke="currentColor" stroke-width="2" stroke-linecap="round" stroke-linejoin="round"/>
</svg>
