<svg width="30" height="30" viewBox="0 0 30 30" fill="none" xmlns="http://www.w3.org/2000/svg">
<path d="M4.608 12.1519C4.48015 11.5749 4.4672 10.9784 4.56988 10.3965C4.67256 9.81449 4.88886 9.25844 5.20644 8.76007C5.52401 8.2617 5.93665 7.83076 6.42077 7.49185C6.9049 7.15295 7.45103 6.91272 8.028 6.78489L17.8485 4.60689C18.4256 4.47882 19.0222 4.4657 19.6044 4.56827C20.1865 4.67085 20.7427 4.88711 21.2413 5.2047C21.7398 5.5223 22.1709 5.935 22.5099 6.41924C22.8489 6.90348 23.0892 7.44977 23.217 8.02689L24.264 12.7504H22.725L21.75 8.35089C21.5779 7.57417 21.1043 6.89763 20.4334 6.47005C19.7625 6.04248 18.9492 5.8989 18.1725 6.07089L8.352 8.25039C7.96725 8.33561 7.60306 8.49579 7.28024 8.72179C6.95741 8.94779 6.68227 9.23518 6.47054 9.56754C6.25881 9.8999 6.11464 10.2707 6.04625 10.6588C5.97787 11.0469 5.98662 11.4447 6.072 11.8294L6.276 12.7519H4.74L4.608 12.1519ZM23.7255 17.2504H25.2615L25.3935 17.8489C25.5214 18.4259 25.5343 19.0223 25.4316 19.6043C25.3289 20.1863 25.1126 20.7423 24.7951 21.2407C24.4775 21.7391 24.0649 22.17 23.5807 22.5089C23.0966 22.8478 22.5505 23.0881 21.9735 23.2159L12.1545 25.3954C11.5774 25.5235 10.9808 25.5366 10.3986 25.434C9.8165 25.3314 9.26027 25.1152 8.76173 24.7976C8.26319 24.48 7.83211 24.0673 7.4931 23.583C7.1541 23.0988 6.91383 22.5525 6.786 21.9754L5.739 17.2504H7.275L8.25 21.6514C8.42212 22.4281 8.89571 23.1047 9.5666 23.5322C10.2375 23.9598 11.0508 24.1034 11.8275 23.9314L21.6495 21.7534C22.0342 21.6682 22.3984 21.508 22.7213 21.282C23.0441 21.056 23.3192 20.7686 23.531 20.4362C23.7427 20.1039 23.8869 19.7331 23.9552 19.345C24.0236 18.9569 24.0149 18.5591 23.9295 18.1744L23.7255 17.2504ZM1.5 15.0004C1.5 14.8015 1.57902 14.6107 1.71967 14.4701C1.86032 14.3294 2.05109 14.2504 2.25 14.2504H5.25C5.44891 14.2504 5.63968 14.3294 5.78033 14.4701C5.92098 14.6107 6 14.8015 6 15.0004C6 15.1993 5.92098 15.3901 5.78033 15.5307C5.63968 15.6714 5.44891 15.7504 5.25 15.7504H2.25C2.05109 15.7504 1.86032 15.6714 1.71967 15.5307C1.57902 15.3901 1.5 15.1993 1.5 15.0004ZM9 15.0004C9 14.8015 9.07902 14.6107 9.21967 14.4701C9.36032 14.3294 9.55109 14.2504 9.75 14.2504H12.75C12.9489 14.2504 13.1397 14.3294 13.2803 14.4701C13.421 14.6107 13.5 14.8015 13.5 15.0004C13.5 15.1993 13.421 15.3901 13.2803 15.5307C13.1397 15.6714 12.9489 15.7504 12.75 15.7504H9.75C9.55109 15.7504 9.36032 15.6714 9.21967 15.5307C9.07902 15.3901 9 15.1993 9 15.0004ZM17.25 14.2504C17.0511 14.2504 16.8603 14.3294 16.7197 14.4701C16.579 14.6107 16.5 14.8015 16.5 15.0004C16.5 15.1993 16.579 15.3901 16.7197 15.5307C16.8603 15.6714 17.0511 15.7504 17.25 15.7504H20.25C20.4489 15.7504 20.6397 15.6714 20.7803 15.5307C20.921 15.3901 21 15.1993 21 15.0004C21 14.8015 20.921 14.6107 20.7803 14.4701C20.6397 14.3294 20.4489 14.2504 20.25 14.2504H17.25ZM24 15.0004C24 14.8015 24.079 14.6107 24.2197 14.4701C24.3603 14.3294 24.5511 14.2504 24.75 14.2504H27.75C27.9489 14.2504 28.1397 14.3294 28.2803 14.4701C28.421 14.6107 28.5 14.8015 28.5 15.0004C28.5 15.1993 28.421 15.3901 28.2803 15.5307C28.1397 15.6714 27.9489 15.7504 27.75 15.7504H24.75C24.5511 15.7504 24.3603 15.6714 24.2197 15.5307C24.079 15.3901 24 15.1993 24 15.0004Z" fill="#333333"/>
</svg>
