<svg class="small-icon-size" width="30" height="30" viewBox="0 0 30 30" fill="currentColor" xmlns="http://www.w3.org/2000/svg">
<path d="M4.23567 15.752H5.00367L5.48967 17.162L5.98167 15.752H6.74367L6.01167 17.69L6.55167 19.046L7.75767 15.74H8.65767L6.95367 20H6.23967L5.48967 18.212L4.74567 20H4.03167L2.33367 15.74H3.22167L4.43367 19.046L4.96167 17.69L4.23567 15.752ZM10.868 20.03C10.556 20.03 10.272 19.97 10.016 19.85C9.76402 19.73 9.54602 19.568 9.36202 19.364C9.18202 19.156 9.04202 18.924 8.94202 18.668C8.84202 18.408 8.79202 18.142 8.79202 17.87C8.79202 17.586 8.84402 17.316 8.94802 17.06C9.05602 16.8 9.20202 16.57 9.38602 16.37C9.57402 16.166 9.79402 16.006 10.046 15.89C10.302 15.77 10.582 15.71 10.886 15.71C11.194 15.71 11.474 15.772 11.726 15.896C11.982 16.02 12.2 16.186 12.38 16.394C12.56 16.602 12.7 16.834 12.8 17.09C12.9 17.346 12.95 17.61 12.95 17.882C12.95 18.162 12.898 18.432 12.794 18.692C12.69 18.948 12.544 19.178 12.356 19.382C12.172 19.582 11.952 19.74 11.696 19.856C11.444 19.972 11.168 20.03 10.868 20.03ZM9.63202 17.87C9.63202 18.054 9.66002 18.232 9.71602 18.404C9.77202 18.576 9.85202 18.73 9.95602 18.866C10.064 18.998 10.194 19.104 10.346 19.184C10.502 19.26 10.678 19.298 10.874 19.298C11.074 19.298 11.252 19.258 11.408 19.178C11.564 19.094 11.694 18.984 11.798 18.848C11.902 18.708 11.98 18.554 12.032 18.386C12.088 18.214 12.116 18.042 12.116 17.87C12.116 17.686 12.086 17.51 12.026 17.342C11.97 17.17 11.888 17.018 11.78 16.886C11.676 16.75 11.546 16.644 11.39 16.568C11.238 16.488 11.066 16.448 10.874 16.448C10.67 16.448 10.49 16.49 10.334 16.574C10.182 16.654 10.054 16.762 9.95002 16.898C9.84602 17.034 9.76602 17.186 9.71002 17.354C9.65802 17.522 9.63202 17.694 9.63202 17.87ZM13.7052 20V15.74H15.5892C15.7852 15.74 15.9652 15.78 16.1292 15.86C16.2972 15.94 16.4412 16.048 16.5612 16.184C16.6852 16.32 16.7792 16.472 16.8432 16.64C16.9112 16.808 16.9452 16.98 16.9452 17.156C16.9452 17.336 16.9132 17.51 16.8492 17.678C16.7892 17.842 16.7012 17.986 16.5852 18.11C16.4692 18.234 16.3332 18.33 16.1772 18.398L17.1492 20H16.2372L15.3612 18.572H14.5332V20H13.7052ZM14.5332 17.846H15.5712C15.6752 17.846 15.7672 17.816 15.8472 17.756C15.9272 17.692 15.9912 17.608 16.0392 17.504C16.0872 17.4 16.1112 17.284 16.1112 17.156C16.1112 17.02 16.0832 16.902 16.0272 16.802C15.9712 16.698 15.8992 16.616 15.8112 16.556C15.7272 16.496 15.6352 16.466 15.5352 16.466H14.5332V17.846ZM17.8154 20V15.74H19.3634C19.8274 15.74 20.2154 15.836 20.5274 16.028C20.8394 16.216 21.0734 16.472 21.2294 16.796C21.3854 17.116 21.4634 17.472 21.4634 17.864C21.4634 18.296 21.3774 18.672 21.2054 18.992C21.0334 19.312 20.7894 19.56 20.4734 19.736C20.1614 19.912 19.7914 20 19.3634 20H17.8154ZM20.6294 17.864C20.6294 17.588 20.5794 17.346 20.4794 17.138C20.3794 16.926 20.2354 16.762 20.0474 16.646C19.8594 16.526 19.6314 16.466 19.3634 16.466H18.6434V19.274H19.3634C19.6354 19.274 19.8654 19.214 20.0534 19.094C20.2414 18.97 20.3834 18.802 20.4794 18.59C20.5794 18.374 20.6294 18.132 20.6294 17.864Z" fill="currentColor"/>
<path d="M24.8719 9.81563L18.3094 3.25312C18.1776 3.12123 17.9989 3.04704 17.8125 3.04688H6.5625C6.12738 3.04688 5.71008 3.21973 5.4024 3.5274C5.09473 3.83508 4.92188 4.25238 4.92188 4.6875V13.125C4.92188 13.3115 4.99595 13.4903 5.12782 13.6222C5.25968 13.754 5.43852 13.8281 5.625 13.8281C5.81148 13.8281 5.99032 13.754 6.12218 13.6222C6.25405 13.4903 6.32812 13.3115 6.32812 13.125V4.6875C6.32812 4.62534 6.35282 4.56573 6.39677 4.52177C6.44073 4.47782 6.50034 4.45312 6.5625 4.45312H17.1094V10.3125C17.1094 10.499 17.1835 10.6778 17.3153 10.8097C17.4472 10.9415 17.626 11.0156 17.8125 11.0156H23.6719V13.125C23.6719 13.3115 23.746 13.4903 23.8778 13.6222C24.0097 13.754 24.1885 13.8281 24.375 13.8281C24.5615 13.8281 24.7403 13.754 24.8722 13.6222C25.004 13.4903 25.0781 13.3115 25.0781 13.125V10.3125C25.078 10.1261 25.0038 9.94736 24.8719 9.81563ZM18.5156 9.60938V5.44688L22.6781 9.60938H18.5156Z" fill="currentColor"/>
</svg>
